<svg version="1.1" id="Layer_1" xmlns="http://www.w3.org/2000/svg" xmlns:xlink="http://www.w3.org/1999/xlink" x="0px" y="0px"
	 width="100%" viewBox="0 0 784 960" enable-background="new 0 0 784 960" xml:space="preserve">
<path fill="#000000" opacity="1.000000" stroke="none" 
	d="
M785.000000,858.531372 
	C781.719482,864.798706 776.442444,869.114563 773.220398,875.001221 
	C772.160950,876.936829 770.342773,878.531738 767.903870,879.292419 
	C753.630798,883.744141 739.362244,888.352905 724.562317,890.586121 
	C708.271240,893.044250 692.477051,897.716919 676.263672,900.512634 
	C654.942688,904.189087 634.689453,911.873596 613.995789,917.920471 
	C603.525085,920.980042 592.666016,922.726685 581.961548,924.966492 
	C561.804810,929.184143 541.661865,933.476501 521.457825,937.456787 
	C505.626099,940.575745 489.524933,941.730042 473.476929,943.132141 
	C459.698822,944.335999 445.873840,944.345093 432.048584,944.134521 
	C415.732849,943.885986 399.592499,941.806030 383.399048,940.039062 
	C356.061249,937.056091 330.167297,928.465454 304.438049,919.653992 
	C297.103241,917.142090 290.992798,917.528687 283.884430,918.384583 
	C254.650940,921.904480 225.716309,922.276245 197.098969,912.594543 
	C173.491104,904.607605 152.507263,892.106873 131.363647,879.474182 
	C115.399925,869.936279 100.914101,858.336243 87.407639,845.999207 
	C70.532654,830.585449 56.425453,812.460022 46.509167,791.308289 
	C37.337322,771.744324 31.177757,751.224426 25.564138,730.548462 
	C21.850527,716.870483 22.416550,702.568848 22.542515,688.409790 
	C22.652752,676.018433 23.415583,663.754761 27.189096,651.915649 
	C29.902281,643.403381 32.466984,634.866028 36.222248,626.642456 
	C40.357449,617.587036 43.410343,607.970886 48.967186,599.655457 
	C59.295437,584.199768 69.641312,568.846680 82.685959,555.286743 
	C93.778000,543.756531 105.277122,532.853088 117.610786,522.724915 
	C134.147247,509.145508 150.514404,495.360107 166.997955,481.715973 
	C179.544067,471.331055 192.551666,461.462494 204.605789,450.538635 
	C212.834549,443.081390 221.183487,435.707947 229.018311,427.753937 
	C237.299698,419.346527 246.040039,411.332001 253.308807,402.056915 
	C261.443451,391.676910 271.155212,382.202209 274.745209,368.228424 
	C269.241333,364.903198 264.698608,359.608795 259.531616,355.004333 
	C251.105026,347.494965 253.116318,328.047699 263.034149,323.485809 
	C268.271576,321.076691 266.258179,317.972137 264.887543,315.078125 
	C261.121246,307.125702 257.029633,299.323944 252.940216,291.528931 
	C248.305359,282.694244 243.840179,273.748871 238.741913,265.184601 
	C232.551010,254.784821 225.520905,245.148438 216.365311,236.798706 
	C207.300385,228.531647 198.797531,219.640945 189.439453,211.605423 
	C177.764206,201.580276 166.087143,191.520782 155.169724,180.635742 
	C150.054474,175.535660 145.790482,169.797760 142.430481,163.456604 
	C139.480362,157.888992 140.832535,153.923889 145.604996,149.866394 
	C162.545227,135.463928 182.644150,127.283569 203.347839,120.306862 
	C206.900742,119.109604 210.724747,118.716782 214.513870,117.933678 
	C205.134964,101.981979 195.191376,86.866913 179.487610,74.819504 
	C186.981934,71.331093 193.137833,68.204254 199.493454,65.556862 
	C217.779724,57.939854 235.794510,49.785034 253.471512,40.809448 
	C266.491455,34.198513 278.971222,26.462311 292.812805,21.462843 
	C296.327271,20.193445 298.375336,20.790993 301.055786,23.387661 
	C306.891083,29.040565 309.370361,36.511337 313.114655,43.313972 
	C318.002838,52.194790 323.043243,60.991783 328.014313,69.826988 
	C328.862244,71.334038 330.244507,71.835701 331.826813,71.640160 
	C335.251801,71.216904 338.661896,70.673393 342.195343,70.162102 
	C341.047699,56.717468 339.933228,43.685112 338.823608,30.652340 
	C338.288422,24.365843 337.940186,18.056572 337.166260,11.799801 
	C336.693268,7.976230 338.085754,6.791967 341.758362,6.671791 
	C361.362274,6.030301 380.907562,4.499337 400.591095,5.488747 
	C418.357758,6.381801 436.102814,4.441567 453.728302,1.924672 
	C458.655945,1.221012 460.159393,2.385206 460.200958,7.336537 
	C460.286377,17.502258 460.515961,27.676849 460.187286,37.831646 
	C460.026764,42.791336 461.822052,44.472466 466.513062,43.917622 
	C468.319580,43.703949 470.181152,43.810070 472.007080,43.930584 
	C483.668213,44.700195 483.915314,44.768925 486.390930,33.405056 
	C488.532562,23.574261 493.571289,14.767043 495.801971,5.001776 
	C496.357269,2.570709 497.933350,2.377613 500.316010,2.472252 
	C505.488678,2.677713 509.889923,5.209406 514.643860,6.585306 
	C540.171814,13.973754 566.021057,20.272865 591.073975,29.313650 
	C595.513916,30.915886 600.048584,32.839783 604.952637,33.238853 
	C606.688171,33.380081 608.628479,33.781048 610.031433,36.091652 
	C593.266113,52.960110 577.444275,70.916862 559.721191,87.384392 
	C561.932556,89.974586 565.021729,89.793633 567.497375,90.864494 
	C584.742554,98.324074 602.602722,104.181946 620.138733,110.888138 
	C625.300537,112.862129 630.176575,115.373131 634.869263,118.229889 
	C638.607361,120.505455 638.577209,122.661781 634.726624,124.664810 
	C620.376282,132.129700 609.960999,143.542908 602.294739,157.478241 
	C599.151062,163.192627 597.058350,169.503891 595.286682,175.799942 
	C602.287415,175.799942 608.750671,175.366974 615.137146,175.883423 
	C632.318054,177.272781 639.269836,186.481552 637.063599,202.254059 
	C636.778748,204.290466 635.843262,206.032349 634.519592,207.593201 
	C629.999878,212.922775 624.659607,217.376099 619.587036,222.133972 
	C613.185730,228.138214 605.706848,232.870239 599.919800,239.601135 
	C596.053345,244.098175 590.563354,246.914246 585.844238,250.437958 
	C569.400574,262.716217 558.140320,278.387726 551.253418,297.539398 
	C549.119751,303.472900 546.463745,309.231262 543.806152,314.958130 
	C542.528931,317.710388 542.637512,319.388550 544.992554,321.813873 
	C555.822388,332.966766 554.840454,347.136414 543.096252,357.217255 
	C540.851013,359.144531 539.074585,361.635254 537.174744,363.942444 
	C535.524963,365.945953 536.098450,368.071472 537.348572,369.972382 
	C539.543457,373.309845 541.698181,376.703125 544.207520,379.799286 
	C554.970154,393.078888 565.412354,406.663116 577.509949,418.774048 
	C593.062988,434.344177 608.238953,450.307190 624.543701,465.111084 
	C637.432983,476.813995 650.073364,488.728729 662.271484,501.187775 
	C667.854126,506.889771 673.872742,512.536133 679.364563,518.322815 
	C692.042908,531.681763 704.853210,545.041626 715.878906,559.879517 
	C733.303345,583.328430 746.431702,608.731140 752.938965,637.554932 
	C759.414124,666.236755 758.936523,694.969849 756.322815,723.906799 
	C755.124023,737.179016 752.226562,750.164246 749.902039,763.240234 
	C749.198242,767.199707 750.519104,768.273376 753.927917,768.826660 
	C759.040527,769.656372 764.098267,770.435913 769.289429,769.407471 
	C773.135864,768.645386 773.934448,770.930542 772.605835,773.786499 
	C769.183350,781.143433 768.488770,789.167908 766.425842,796.850891 
	C765.469055,800.414001 766.865662,802.722351 769.050903,805.313599 
	C775.249329,812.663757 781.737305,819.883850 784.838989,829.685913 
	C785.000000,839.354248 785.000000,848.708435 785.000000,858.531372 
M107.434242,565.869385 
	C102.470528,570.658997 98.123833,575.934509 93.710457,581.255066 
	C79.603760,598.261414 66.841576,615.820740 58.744316,636.630188 
	C50.934040,656.702148 45.627705,677.104248 46.193192,698.820679 
	C46.556534,712.773987 49.539986,726.257996 53.450424,739.509644 
	C56.835625,750.981323 60.256676,762.577271 65.183792,773.427124 
	C72.314545,789.129456 81.915077,803.265076 93.740425,816.191162 
	C103.558777,826.923462 114.138809,836.789612 125.592300,845.274841 
	C141.156784,856.805786 157.518753,867.313049 174.712326,876.639465 
	C203.729904,892.379700 234.205063,899.285278 266.955139,896.920349 
	C268.140961,896.834717 269.627075,897.395752 270.615631,895.687988 
	C269.757202,895.125244 268.950531,894.579712 268.127716,894.059692 
	C253.536285,884.837952 238.539917,876.281921 224.333206,866.416870 
	C214.803070,859.799133 206.849808,851.528564 199.125397,843.184570 
	C193.899872,837.539673 188.899612,831.327881 183.623184,825.848450 
	C177.789795,819.790710 173.784836,812.590515 168.358444,806.362549 
	C162.848892,800.039124 158.985504,792.262756 153.811020,785.502563 
	C151.515717,782.503967 148.959412,779.505066 148.125504,775.477173 
	C154.242340,781.090698 160.353683,786.725159 165.254089,793.266724 
	C169.528671,798.972961 174.635803,804.258118 179.580383,808.782837 
	C185.505920,814.205200 190.569122,820.532593 196.694275,825.830872 
	C205.530930,833.474792 213.689789,841.905823 223.008179,849.133057 
	C233.406921,857.198303 244.014359,865.143677 255.429688,871.400269 
	C276.855347,883.143433 299.206726,892.992920 322.542450,900.725281 
	C356.571259,912.000854 391.280029,918.999023 427.058380,920.740173 
	C455.110535,922.105347 482.883301,919.183655 510.592072,915.209900 
	C524.599976,913.201050 538.261780,909.590637 552.075073,906.675476 
	C567.516541,903.416565 583.048950,900.550903 598.478638,897.293884 
	C612.093811,894.419922 625.511658,890.227234 638.643311,885.565247 
	C649.707520,881.637207 660.955505,877.820923 671.003235,871.435608 
	C680.105225,865.651367 689.352478,860.031799 697.720886,853.225342 
	C707.880554,844.961975 718.427795,836.957886 727.369324,827.484314 
	C734.254150,820.189819 740.807251,812.219543 746.261719,803.698975 
	C749.363464,798.853699 753.054688,793.560425 751.450623,787.000244 
	C750.890503,784.709167 750.190002,782.523438 747.333374,781.928589 
	C744.505981,781.339905 742.784241,782.264893 741.065186,784.640503 
	C733.341919,795.313293 724.550049,805.189880 714.505676,813.605103 
	C700.419800,825.406372 684.413574,834.467590 667.956726,842.605530 
	C662.551636,845.278320 656.812317,847.275146 650.595947,849.841003 
	C650.996277,847.418823 652.154846,846.989197 653.058044,846.347229 
	C669.557678,834.620239 685.905640,822.740417 701.488770,809.747681 
	C712.925232,800.212219 720.633972,788.311768 727.555298,775.601440 
	C729.138794,772.693481 730.645630,769.618408 731.452698,766.433960 
	C735.944031,748.713623 740.461670,730.979675 741.370361,712.596619 
	C742.368103,692.411194 742.236389,672.221497 737.264832,652.527588 
	C733.403320,637.230408 728.694458,622.229431 721.886108,607.760254 
	C716.953430,597.277466 711.152832,587.386108 704.513428,578.223511 
	C699.733337,571.626831 694.268311,565.215149 689.028748,558.834595 
	C676.047485,543.026550 662.169373,528.087952 648.265686,513.134033 
	C644.734863,509.336395 640.183289,506.496063 637.139893,502.474823 
	C628.745972,491.384003 617.891968,482.742889 608.295349,472.896362 
	C596.939392,461.244659 585.977600,449.250732 575.088562,437.200989 
	C565.455994,426.541687 555.876404,415.820221 546.877625,404.559906 
	C540.044678,396.009674 533.491333,387.208252 526.364929,378.873505 
	C524.574768,376.779785 523.355469,376.310577 521.003906,377.554871 
	C516.889832,379.731659 512.822083,382.188812 508.439514,383.630829 
	C491.529297,389.195068 474.349670,394.056549 456.857330,397.190735 
	C428.989716,402.183868 400.842926,405.319061 372.463715,402.919830 
	C362.407928,402.069672 352.264679,401.116913 342.472229,398.193848 
	C331.660950,394.966644 320.823608,391.823761 309.966705,388.753571 
	C300.722076,386.139343 300.390900,384.915497 295.897949,396.145935 
	C291.150116,408.013367 289.426697,420.888580 284.460602,432.748749 
	C283.560791,434.897705 282.097595,437.156311 282.698669,439.765137 
	C283.201202,439.845306 283.574524,440.030396 283.820923,439.923370 
	C285.188354,439.329407 286.601868,438.787994 287.859985,438.004486 
	C298.745422,431.225525 310.609741,429.289062 323.281860,429.908020 
	C333.196472,430.392242 342.114929,435.297546 352.015564,435.574829 
	C353.373016,435.612885 354.732941,436.764740 356.028290,437.510956 
	C357.634155,438.436035 357.797607,439.757660 356.904236,441.332428 
	C356.025665,442.881042 354.979126,443.450714 353.232300,442.529297 
	C351.776062,441.761169 350.052094,440.524445 348.664825,440.763123 
	C340.734680,442.127533 333.105652,439.729370 325.365723,439.114777 
	C314.082153,438.218842 303.657684,441.803833 292.959778,444.029144 
	C284.156403,445.860413 277.992981,450.664032 276.033234,459.940918 
	C275.624725,461.874725 274.457886,463.642761 273.999207,465.572479 
	C272.298553,472.727509 270.747864,479.918152 269.125336,487.164642 
	C272.900909,488.094116 275.610748,486.928009 278.373779,486.654175 
	C281.186249,486.375458 283.959442,485.689575 286.772675,485.431824 
	C289.848083,485.150085 292.745789,486.041199 295.325317,487.693542 
	C297.489075,489.079590 300.184662,489.967346 302.253754,493.671356 
	C297.111877,491.803894 293.298676,490.744141 289.228851,491.178955 
	C280.108795,492.153320 271.098114,493.907593 262.289490,496.280548 
	C248.471252,500.002991 234.815567,504.356689 220.841644,507.482910 
	C215.383392,508.704010 209.805252,509.805511 203.620407,509.583038 
	C205.006332,507.151154 206.844070,507.306915 208.336838,506.861572 
	C216.310944,504.482758 224.365280,502.382599 232.357452,500.060883 
	C241.274384,497.470520 249.167816,491.912384 258.722839,491.254974 
	C260.568634,491.128021 261.304108,489.706879 261.426453,487.691986 
	C262.551849,469.159973 267.024872,451.195099 272.898987,433.788544 
	C279.782898,413.389709 286.983307,393.165802 290.691254,371.884705 
	C290.993561,370.149597 290.890533,367.950897 293.234009,367.487305 
	C295.383667,367.062042 297.279236,368.055664 298.493561,369.722015 
	C301.039337,373.215485 304.349304,375.905640 308.275177,377.209717 
	C313.823639,379.052704 318.998169,381.753632 324.512909,383.608002 
	C343.773682,390.084534 363.909760,391.660980 383.906494,393.429474 
	C409.282715,395.673767 434.369904,392.055267 459.293915,387.476288 
	C463.866211,386.636261 468.562073,386.093567 472.767700,383.910492 
	C480.112000,380.098206 487.639252,376.844757 495.346436,373.746246 
	C508.066284,368.632568 521.674805,364.913788 531.913635,354.351135 
	C538.458557,347.599182 540.701172,337.801514 534.844116,331.635223 
	C532.312805,331.728668 531.730774,333.984314 530.872925,335.620789 
	C524.378845,348.009216 514.793518,356.000580 500.331146,356.130371 
	C493.819031,356.188843 488.560425,358.608948 483.300781,361.814453 
	C481.763184,362.751587 479.903442,363.163147 478.186401,363.802246 
	C467.046295,367.948761 455.378815,369.851868 443.748871,371.934998 
	C420.948425,376.018982 398.049683,375.364441 375.081879,373.790833 
	C364.334198,373.054474 354.306427,369.010864 343.768036,367.733612 
	C333.568817,366.497467 324.118530,363.200867 314.497833,359.937469 
	C297.708374,354.242310 281.712769,347.353699 268.705109,334.832001 
	C264.797943,340.954498 266.930908,349.432312 273.722687,353.392181 
	C278.841766,356.376770 282.304749,361.218628 287.284729,364.303436 
	C289.433502,365.634491 288.957672,367.873962 288.298737,370.155029 
	C283.581085,386.486115 273.846832,400.315338 266.053558,415.109802 
	C265.670959,415.836121 265.102020,416.479919 264.548523,417.098267 
	C256.040710,426.602112 248.714066,437.069397 240.037949,446.483490 
	C235.857803,451.019165 230.923645,454.680084 226.984283,459.368683 
	C221.095535,466.377441 213.753754,471.881531 207.195847,478.186340 
	C201.386765,483.771271 194.711655,488.725952 189.040298,494.369965 
	C177.070328,506.282379 163.145279,515.755249 150.755081,527.104126 
	C139.656006,537.270386 126.912445,545.574097 116.640991,556.745056 
	C113.883331,559.744202 109.341797,560.941223 107.434242,565.869385 
M450.452393,199.257141 
	C428.149384,198.718399 405.967133,196.513077 383.808777,194.157898 
	C359.676544,191.592880 335.491119,189.314056 311.808899,183.597443 
	C293.214508,179.108978 274.363068,175.802551 255.672897,171.739761 
	C240.411530,168.422302 225.022964,165.501541 209.847504,161.837860 
	C195.191086,158.299500 180.292511,157.228607 165.449539,155.489594 
	C162.502731,155.144348 158.681366,155.226868 156.944305,158.455734 
	C155.296631,161.518433 158.411148,163.567993 159.653839,165.973373 
	C159.954239,166.554855 160.454681,167.035263 160.875946,167.551727 
	C170.481445,179.328049 182.505432,188.679367 192.987137,199.579971 
	C216.033173,223.547073 239.663818,246.803024 255.837189,276.648010 
	C265.459137,294.403564 275.353455,311.748169 280.396362,331.445679 
	C281.115784,334.255859 282.795715,336.378113 285.659119,337.692993 
	C307.028748,347.505859 329.065552,354.624481 352.380005,358.810425 
	C378.487305,363.497864 404.495422,365.148285 430.775787,362.740021 
	C451.235626,360.865112 471.280914,356.929047 489.724365,347.218933 
	C493.184753,345.397064 496.832062,344.560944 500.252655,346.350372 
	C504.985474,348.826324 508.810577,346.767090 512.316528,344.380219 
	C518.659851,340.061554 523.161743,334.155121 525.490967,326.694611 
	C526.280396,324.166107 527.180359,321.604736 528.481323,319.314911 
	C534.493713,308.732300 537.905396,297.010895 543.353699,286.146637 
	C550.652710,271.591827 558.743103,257.693481 571.095398,246.941284 
	C581.822021,237.604141 593.622925,229.605148 603.736389,219.406799 
	C609.051331,214.047287 613.880493,208.026184 620.302368,203.621155 
	C623.024719,201.753799 624.413818,197.628555 623.064026,194.133453 
	C621.858215,191.010864 618.415833,192.280472 615.901367,192.209778 
	C602.394775,191.829987 588.993896,193.618103 575.546204,194.421631 
	C552.313293,195.809875 529.121033,198.009689 505.874664,198.999313 
	C487.756226,199.770645 469.581573,199.221542 450.452393,199.257141 
M250.257065,112.294403 
	C253.748978,125.332840 254.881088,138.780807 257.052277,152.046143 
	C257.494171,154.746094 258.230316,156.373138 261.087372,156.741272 
	C270.830078,157.996536 280.510040,159.549271 289.717590,163.205185 
	C290.941010,163.690964 292.257172,164.091385 293.817200,163.082321 
	C296.990417,150.106339 299.162659,136.652390 303.646088,123.743996 
	C304.997986,119.851723 306.186584,118.991150 309.417236,121.372574 
	C312.511505,123.653458 316.133575,125.065262 319.321442,127.066254 
	C328.027252,132.530807 336.374115,138.236649 338.899963,149.627304 
	C340.349121,156.162643 340.765961,162.762665 341.949524,169.285721 
	C342.518768,172.423203 344.087616,173.494141 346.847992,173.828720 
	C354.429596,174.747665 361.985443,175.991989 369.592346,176.557007 
	C376.635254,177.080124 379.284637,178.273819 377.862305,168.655594 
	C377.669128,167.349243 377.834991,165.992661 377.793182,164.660629 
	C376.973724,138.555984 376.843262,112.423683 374.620453,86.375359 
	C374.097961,80.252525 373.565094,79.668991 367.276276,79.961220 
	C355.815948,80.493767 344.434174,82.429405 333.026062,82.939453 
	C309.000183,84.013641 285.548584,88.747383 261.946808,92.554932 
	C246.723328,95.010857 246.106277,96.331139 250.257065,112.294403 
M503.652588,155.933578 
	C504.112518,156.626968 504.594360,157.306946 505.028961,158.015854 
	C509.123230,164.693649 515.748901,170.007553 515.710571,178.911911 
	C515.699036,181.590576 518.220703,182.120239 520.575989,181.974182 
	C525.554443,181.665466 530.556030,180.858902 535.501343,181.125488 
	C540.835876,181.413055 542.428528,179.051941 543.723572,174.252625 
	C548.116638,157.971176 549.818420,140.811417 558.798462,125.955345 
	C558.943054,125.716110 558.816467,125.312950 558.816467,124.671547 
	C557.918640,124.271889 556.929443,123.527092 555.868530,123.404785 
	C538.529480,121.405975 522.572327,114.213318 505.929810,109.675468 
	C487.733002,104.713806 469.284851,99.814941 452.170410,91.395256 
	C449.618042,90.139572 448.278809,90.959923 446.979218,93.206108 
	C442.231140,101.412758 438.639496,110.140968 434.661743,118.713165 
	C425.724548,137.973297 422.416168,158.554642 417.813049,179.014709 
	C420.272003,180.709167 423.104370,180.751587 425.897491,180.786316 
	C434.384491,180.891861 442.857178,181.242859 451.265778,182.440567 
	C459.132660,183.561127 459.775696,182.996902 461.767090,175.183136 
	C464.463257,164.603943 470.175507,155.649750 478.165100,148.358414 
	C484.301392,142.758423 491.447418,143.362839 497.347504,149.228973 
	C499.354279,151.224167 501.272675,153.308258 503.652588,155.933578 
M391.258881,169.286255 
	C391.410980,177.982300 391.938354,178.485138 401.256531,178.818542 
	C408.914948,179.092575 409.473816,178.642532 409.748810,170.964645 
	C410.135895,160.156067 410.455872,149.344498 410.706116,138.531921 
	C410.796814,134.613480 412.191711,131.439056 415.277191,128.143768 
	C416.355774,131.690430 417.204315,134.480621 418.328949,138.178589 
	C426.549500,114.779160 433.401245,91.773346 446.813416,71.133163 
	C450.656647,74.326759 455.054291,75.144630 457.348541,78.446152 
	C459.917328,82.142807 463.300568,84.193573 467.335144,85.410820 
	C484.638550,90.631294 501.042297,98.646957 519.073914,101.691345 
	C523.209229,102.389542 525.520203,102.067085 526.331299,97.819328 
	C527.897339,89.617264 530.964111,81.865913 533.688416,74.038307 
	C535.526855,68.756065 537.063354,63.456539 538.763733,57.888130 
	C537.336243,57.582191 536.545471,57.247925 535.764709,57.269974 
	C522.959290,57.631603 510.188385,56.988625 497.404663,56.304348 
	C485.117798,55.646671 472.776550,55.882721 460.508575,55.022015 
	C442.255920,53.741428 424.008698,53.015724 405.714691,53.186172 
	C402.595245,53.215233 401.297821,54.295734 401.008179,57.459938 
	C400.221466,66.054260 399.247253,74.634834 398.168121,83.198273 
	C395.967987,100.657219 394.566376,118.188133 393.234894,135.726654 
	C393.132172,137.079391 393.184082,139.044724 392.076782,139.347519 
	C389.151337,140.147522 390.029755,142.309631 390.088898,143.971344 
	C390.378296,152.099258 390.850922,160.220673 391.258881,169.286255 
M207.942612,74.530724 
	C199.316864,78.367195 198.989777,78.849228 204.675888,85.890038 
	C212.913864,96.090744 220.220627,106.970871 227.377182,117.877739 
	C234.151855,128.202637 240.794891,138.816055 244.481567,150.856613 
	C244.875366,152.142807 245.233139,153.835251 247.158615,153.902710 
	C247.889099,153.121078 247.680206,152.283981 247.483414,151.485977 
	C242.859985,132.738434 241.303207,113.489609 238.114090,94.508583 
	C237.344040,89.925476 238.704498,87.568497 243.279770,86.033913 
	C254.561005,82.250092 266.323120,81.055908 277.892700,78.823845 
	C290.888092,76.316719 303.882019,73.802124 317.252075,71.218216 
	C316.694977,69.901474 316.323181,69.020287 315.949463,68.139908 
	C311.116791,56.755013 303.909912,46.780235 297.196930,36.509109 
	C295.204926,33.461269 292.650665,33.589775 289.800873,34.935059 
	C284.999756,37.201469 280.178772,39.428848 275.421631,41.784714 
	C262.468750,48.199387 249.636475,54.865852 236.578552,61.057487 
	C227.272064,65.470314 217.555908,69.015274 207.942612,74.530724 
M451.392914,19.386120 
	C450.700897,15.463351 447.878754,15.049584 444.641235,15.245865 
	C429.680664,16.152885 414.703583,16.530010 399.720062,16.266701 
	C384.225098,15.994403 368.808746,17.235287 353.379150,18.313570 
	C350.145752,18.539534 347.985504,19.566307 348.206238,23.415205 
	C349.004944,37.342106 349.202789,51.306446 351.184784,65.154808 
	C351.588348,67.974785 352.749969,68.671776 355.504181,68.395149 
	C362.614197,67.681068 369.764465,67.376900 376.882965,66.735237 
	C381.809723,66.291138 383.728943,68.543655 384.138428,73.277565 
	C385.826172,92.788933 387.714020,112.282997 389.628937,132.865067 
	C390.278900,121.494858 389.795868,111.189209 390.478516,100.885239 
	C391.401276,86.956352 391.436035,72.969994 391.952820,59.012028 
	C392.106110,54.872227 390.125885,53.778332 386.399933,54.321758 
	C383.937622,54.680878 381.434998,54.833168 378.945221,54.910686 
	C377.209686,54.964722 375.520721,54.575962 375.193756,52.439079 
	C374.874176,50.350304 375.038940,48.353039 377.368500,47.428410 
	C378.908508,46.817165 380.508545,46.350681 382.096405,45.867676 
	C390.557587,43.293880 399.165375,44.369553 407.811859,44.362846 
	C421.925018,44.351898 436.037262,43.467846 450.154022,44.481579 
	C450.945465,44.538414 451.893524,44.526974 451.821747,42.872192 
	C429.755157,40.867622 407.536499,44.015148 384.266998,42.812893 
	C387.060547,39.312038 389.394897,40.032246 391.427826,40.014404 
	C409.917999,39.852062 428.409027,39.788136 446.899689,39.674995 
	C452.341156,39.641697 453.366455,38.764778 452.520142,33.655197 
	C451.778564,29.178345 451.890564,24.697729 451.392914,19.386120 
M566.786377,114.488113 
	C575.202271,115.053047 576.229614,116.340523 571.494507,123.492661 
	C566.790222,130.598389 564.342773,138.389038 561.778320,146.284637 
	C558.794556,155.471481 556.054443,164.719620 554.506714,174.254517 
	C554.130615,176.570969 552.510803,180.386322 557.678955,180.104568 
	C566.139526,179.643356 574.599487,179.142944 583.066162,178.837662 
	C586.095032,178.728439 587.515991,177.661041 587.868286,174.496384 
	C588.441467,169.348511 589.907959,164.246506 592.339539,159.768066 
	C597.883911,149.556595 603.774719,139.548920 611.524353,130.706879 
	C619.609985,121.481544 619.682312,121.852798 607.715759,117.342842 
	C587.990295,109.908722 568.595703,101.585396 548.466370,95.204132 
	C540.014709,92.524841 539.043518,92.753052 535.314636,101.011826 
	C533.807800,104.349167 534.148499,105.998352 537.980042,107.194000 
	C547.203491,110.072273 556.584045,112.231194 566.786377,114.488113 
M498.182648,26.690752 
	C496.891510,30.985481 495.414246,35.234921 494.355377,39.586166 
	C492.965607,45.297031 493.277618,45.633759 499.015961,45.701729 
	C510.996338,45.843639 522.977966,45.878410 534.958801,45.985958 
	C545.754211,46.082863 548.191589,49.396214 545.460266,59.940987 
	C543.965454,65.712143 542.508362,71.502686 541.353027,77.347488 
	C540.885315,79.713882 540.694397,82.504837 544.052368,83.438332 
	C547.106628,84.287399 549.943604,85.321152 552.523621,81.940086 
	C555.428284,78.133537 558.450500,74.136383 562.247437,71.345749 
	C571.957703,64.208961 577.986267,53.907791 585.831848,45.191074 
	C588.211914,42.546692 587.742432,39.474823 584.022766,38.088459 
	C578.424194,36.001839 572.785828,33.954357 567.034851,32.356899 
	C548.496704,27.207569 529.842590,22.467634 511.361908,17.124649 
	C506.336578,15.671768 503.349670,17.262253 500.813232,21.030060 
	C499.802826,22.531040 499.201324,24.307293 498.182648,26.690752 
M773.787109,836.580261 
	C772.642151,836.330017 771.213440,836.188416 770.747864,835.083008 
	C768.233093,829.112305 761.978699,827.234314 757.803284,823.087341 
	C754.502441,819.808960 749.908508,820.292053 748.266357,824.185974 
	C746.012207,829.531311 742.496887,834.060120 738.770142,838.158264 
	C733.210205,844.272522 729.402283,851.772400 722.587646,856.958496 
	C717.422302,860.889465 713.297058,866.187073 708.052612,871.547363 
	C716.461853,874.852173 724.258789,875.453125 731.503113,871.160095 
	C740.235596,865.985107 749.331360,862.286133 759.364502,860.808105 
	C761.493286,860.494446 763.592712,859.871704 765.653809,859.225830 
	C775.982239,855.989197 779.623169,846.609802 773.787109,836.580261 
M305.762115,166.849762 
	C313.405701,168.415909 321.032501,170.072067 328.701996,171.498901 
	C331.353973,171.992294 334.457703,172.974564 335.043396,168.433975 
	C337.243744,151.375839 325.530090,132.927277 308.724548,127.668503 
	C304.168579,138.047043 302.487976,149.141556 300.574707,160.208679 
	C299.887512,164.183868 300.852631,166.313705 305.762115,166.849762 
M470.024780,182.843781 
	C481.344727,182.829849 492.664886,182.848221 503.984436,182.774765 
	C506.249573,182.760071 509.454773,182.961472 508.309143,179.261002 
	C505.110352,168.928894 500.027313,159.692139 491.239441,152.947418 
	C489.479370,151.596558 487.482727,150.660339 485.226471,151.927460 
	C481.001129,154.300430 476.702698,156.718704 474.541962,161.313431 
	C471.854340,167.028473 469.503357,172.901443 466.984863,178.696594 
	C465.975250,181.019684 466.229828,182.611725 470.024780,182.843781 
M198.087265,132.510483 
	C192.893555,135.031082 185.870285,135.146286 184.019150,143.406677 
	C200.850937,145.202438 216.753510,149.596741 233.451782,152.842224 
	C231.509140,144.299133 226.844955,138.155685 223.046173,131.595749 
	C222.065247,129.901840 220.238266,130.044708 218.579468,129.998886 
	C211.898041,129.814392 205.300507,130.364670 198.087265,132.510483 
z"/>
<path fill="#000000" opacity="1.000000" stroke="none" 
	d="
M334.494629,700.534424 
	C327.461243,712.347778 331.293793,723.130859 337.870453,732.672424 
	C345.070618,743.118774 354.150391,752.075867 366.588074,756.600708 
	C367.831146,757.052856 369.109589,757.408325 370.373627,757.802246 
	C374.477234,759.081055 375.665649,757.690063 375.194885,753.418030 
	C372.503754,728.995850 370.035767,704.549072 367.467865,680.113220 
	C367.167694,677.256897 366.150543,675.353699 362.706696,674.856201 
	C349.145630,672.897095 337.231384,666.393066 324.950958,660.842590 
	C313.945068,655.868103 310.527283,646.406006 310.123657,635.706360 
	C309.612030,622.143799 315.600159,610.578918 323.628510,600.075867 
	C332.673828,588.242432 344.641632,579.910767 357.487701,572.759094 
	C360.261444,571.214844 361.261871,569.156189 360.697052,566.209778 
	C358.708160,555.834656 359.454041,545.861023 363.833313,536.044800 
	C366.674255,529.676758 368.670685,529.052185 373.555115,534.153137 
	C378.336548,539.146606 379.988373,545.143372 380.216736,551.870178 
	C380.629913,564.038574 380.738739,564.026672 392.602264,562.047974 
	C411.906738,558.828186 431.020050,558.430237 449.603851,565.910645 
	C453.067291,567.304688 457.187531,566.739929 460.829590,569.650757 
	C449.099670,575.663025 445.214203,587.433594 438.811462,597.279602 
	C435.215485,602.809509 429.538513,604.775574 423.423889,605.100830 
	C417.982788,605.390320 415.218903,601.429749 416.785004,596.084595 
	C417.715088,592.910217 419.090790,589.841309 420.518219,586.845154 
	C421.854126,584.041138 421.191254,582.109436 418.213959,581.720093 
	C407.930450,580.375183 397.625641,580.281799 387.431061,582.482788 
	C384.494415,583.116821 385.062927,585.772644 385.251373,587.861450 
	C386.296143,599.441589 387.155090,611.047974 388.596436,622.580444 
	C390.330658,636.456665 390.598938,636.262451 404.027985,639.754456 
	C420.492493,644.035828 436.532990,649.448486 450.546570,659.534058 
	C469.413116,673.112305 475.815918,692.019714 473.881134,714.441345 
	C472.874695,726.104553 468.954987,736.932922 462.933228,746.771362 
	C455.437164,759.018494 445.472870,768.860962 431.899994,774.591675 
	C421.483368,778.989807 411.558716,784.514954 400.879333,788.322021 
	C398.451385,789.187561 397.765808,791.162415 397.306213,793.318176 
	C394.365845,807.109863 387.427948,818.976624 379.507965,830.372131 
	C379.129761,830.916382 378.694855,831.439331 378.207458,831.886230 
	C376.635010,833.328064 375.077454,835.560181 372.798645,834.821289 
	C370.189148,833.975281 370.898468,831.175232 371.065552,829.145996 
	C371.979584,818.046753 372.522430,806.876221 374.276917,795.903503 
	C375.199890,790.130981 372.253113,789.186646 368.346130,788.501160 
	C362.614471,787.495483 356.869171,786.869141 351.517456,784.191833 
	C339.589142,778.224182 327.020782,772.783020 318.743866,762.002686 
	C309.075745,749.410461 297.404755,737.271667 299.790894,719.139771 
	C300.940796,710.401733 306.268219,704.089355 311.601227,697.636536 
	C316.296692,691.955078 321.990723,687.372864 327.196350,682.256470 
	C330.150909,679.352539 332.751312,679.857056 335.588745,681.968933 
	C338.609558,684.217407 341.445038,686.646606 339.712891,691.034119 
	C338.425476,694.295105 336.770844,697.376831 334.494629,700.534424 
M411.016022,693.449890 
	C406.786041,691.161133 402.448700,689.176575 396.849731,688.328491 
	C398.519562,711.101257 400.157990,733.445312 401.801208,755.855286 
	C405.819824,755.676453 408.304535,752.774719 411.557343,751.635193 
	C422.139954,747.927917 428.720032,740.043823 433.379669,730.344543 
	C436.794189,723.237122 435.650970,716.617676 430.853882,710.290161 
	C425.607819,703.370422 418.091827,699.259155 411.016022,693.449890 
M358.655548,596.469788 
	C352.401398,601.334900 348.044525,607.798340 343.775513,614.307983 
	C341.754089,617.390320 341.313446,619.798523 345.302979,622.513611 
	C349.737518,625.531433 354.523132,626.804810 359.427765,628.219055 
	C362.106934,628.991577 363.916809,628.336548 363.680725,625.351318 
	C362.936584,615.942871 361.913818,606.557190 361.815308,597.104248 
	C361.791748,594.843506 360.527069,595.237183 358.655548,596.469788 
z"/>
</svg>