<svg version="1.1" id="Layer_1" xmlns="http://www.w3.org/2000/svg" xmlns:xlink="http://www.w3.org/1999/xlink" x="0px" y="0px"
	 width="100%" viewBox="0 0 1024 1024" enable-background="new 0 0 1024 1024" xml:space="preserve">
<path fill="#FDE803" opacity="1.000000" stroke="none" 
	d="
M0.999999,896.000000 
	C1.000000,597.709106 1.000000,299.418152 1.000000,1.063615 
	C342.242371,1.063615 683.484802,1.063615 1025.000000,1.063615 
	C1025.000000,336.694641 1025.000000,672.389404 1024.533203,1008.541626 
	C1019.051758,1009.049072 1014.037170,1009.098999 1008.558899,1009.096680 
	C1003.061279,1009.081177 998.027222,1009.117859 992.528381,1009.095581 
	C987.038208,1009.078064 982.012878,1009.119568 976.526489,1009.090576 
	C971.064087,1009.053467 966.062683,1009.086853 960.591431,1009.083130 
	C956.339417,1009.032471 952.553772,1009.114380 948.776428,1008.973206 
	C946.069519,1008.872009 944.877808,1009.858704 944.971741,1012.667603 
	C945.108948,1016.774109 945.002563,1020.888794 945.000000,1025.000000 
	C630.333313,1025.000000 315.666656,1025.000000 1.000000,1025.000000 
	C1.000000,993.223816 1.000000,961.569885 1.376982,929.416626 
	C8.184305,930.460815 14.541380,932.797607 21.058687,933.399475 
	C40.738029,935.217102 60.513985,935.999939 80.186760,937.873962 
	C97.993652,939.570251 115.854729,941.395996 133.435257,944.581238 
	C152.501007,948.035522 171.127777,953.933228 190.204391,957.302002 
	C214.316528,961.559998 238.849396,962.123230 263.268280,960.906433 
	C285.783600,959.784485 308.311737,958.014893 330.693329,955.348083 
	C357.198578,952.189941 383.575134,947.908813 409.963135,943.827759 
	C422.723877,941.854309 435.401398,939.319275 448.083160,936.865540 
	C459.197510,934.715027 469.930176,937.597900 480.645050,939.429993 
	C503.369354,943.315491 525.905273,948.325134 548.656250,952.026733 
	C573.340332,956.042908 598.166565,959.204895 622.961609,962.508423 
	C631.174561,963.602722 639.474060,964.119324 647.749817,964.654724 
	C661.159607,965.522400 674.582581,966.187500 688.426147,967.036377 
	C709.071045,965.904175 729.317322,965.002075 749.496704,963.304504 
	C759.553406,962.458557 769.685059,960.905945 779.431763,958.339661 
	C794.669189,954.327637 809.564941,949.036499 824.684509,944.553833 
	C846.981750,937.943115 867.278809,926.859253 888.117798,916.919739 
	C899.319519,911.576904 910.723755,905.832336 922.683594,903.085876 
	C944.105835,898.166382 966.165955,896.056763 987.650208,891.358643 
	C996.242859,889.479614 1004.503174,884.604736 1012.022095,879.719543 
	C1019.111023,875.113647 1021.886719,865.568726 1019.297546,859.451233 
	C1015.935974,851.508728 1009.843018,847.437073 1000.980774,847.446350 
	C976.651855,847.471985 952.322449,847.378418 927.994141,847.200745 
	C924.025024,847.171753 920.063904,846.439636 916.093506,846.096985 
	C911.954834,845.739807 910.082581,843.393005 909.345825,839.413940 
	C907.141968,827.512024 904.691162,815.656067 902.383179,803.773132 
	C896.439331,773.170837 890.818909,742.501709 884.486023,711.980347 
	C880.304382,691.826599 875.858704,671.667969 870.178223,651.900391 
	C863.635376,629.132141 856.390747,606.493042 847.991333,584.351440 
	C839.822449,562.817505 830.584167,541.598755 820.355103,520.965637 
	C812.264893,504.646912 802.029358,489.384766 792.625488,473.726105 
	C780.155640,452.962219 764.309753,434.751312 748.262634,416.812531 
	C738.677612,406.097656 727.715881,396.608887 717.291748,386.654053 
	C714.718323,384.196472 711.828430,382.070282 708.956543,379.487915 
	C665.429504,341.674896 616.863708,312.721832 564.441345,291.555023 
	C564.050293,286.919708 563.670044,282.413513 563.361938,277.488831 
	C563.766357,274.576324 563.784729,271.986786 564.507324,269.611450 
	C565.496521,266.359375 567.020508,263.269989 568.521240,259.849274 
	C569.758484,257.700684 570.878357,255.856186 571.806641,253.919815 
	C578.476013,240.007919 584.939270,225.994232 591.808167,212.182022 
	C596.364746,203.019485 601.484253,194.136856 606.589722,184.908691 
	C608.204651,182.454315 609.581482,180.220169 611.261353,177.840408 
	C613.356995,174.790085 615.149780,171.885376 617.274780,168.902405 
	C623.669739,160.951721 629.790833,153.123230 635.767334,145.185852 
	C638.252441,141.885284 640.906616,138.576797 642.645020,134.877716 
	C646.071289,127.586906 643.894531,123.775101 636.106323,122.593086 
	C633.990906,122.272034 631.789490,122.424751 629.631775,122.493294 
	C623.210693,122.697266 616.780212,123.304146 610.376099,123.086426 
	C606.495789,122.954506 602.634277,121.680458 598.807556,120.743256 
	C595.745544,119.993340 595.028748,118.144104 595.288574,114.826286 
	C596.070251,104.843307 596.082581,95.047958 588.780884,86.621750 
	C583.687195,80.743591 578.275757,80.292755 573.108459,86.419083 
	C570.878113,89.063316 568.375122,91.477524 565.636963,93.838135 
	C564.912415,91.138397 564.546875,88.596756 564.317627,85.741905 
	C563.020203,73.320518 558.576599,71.114334 548.500977,77.750595 
	C535.749878,82.939407 523.389221,88.127853 510.963074,93.154564 
	C507.733765,94.460915 500.730469,92.158325 498.976196,89.598648 
	C494.632629,83.260818 494.575958,83.262779 490.244812,89.970062 
	C487.796173,92.276901 485.660614,94.501122 483.226196,96.770020 
	C482.318237,97.287582 481.709167,97.760468 480.780426,98.309258 
	C478.956726,99.583488 477.452698,100.781822 475.626648,102.060547 
	C474.540192,102.575371 473.775726,103.009804 472.615601,103.436989 
	C471.024963,101.655807 469.829956,99.881866 468.663635,97.821617 
	C468.486511,97.015686 468.280701,96.496063 468.145508,95.562935 
	C468.577942,91.194153 469.445709,87.205399 469.186707,83.291199 
	C468.765015,76.919022 462.417816,73.417938 456.936615,76.532089 
	C453.894379,78.260559 451.580414,81.223450 448.760529,83.399681 
	C440.914154,89.455093 433.101440,95.409447 423.941132,99.668381 
	C415.327850,103.672981 407.429535,109.215454 398.497253,114.507530 
	C397.547302,111.321609 396.707367,108.789322 396.041779,106.211998 
	C394.710480,101.057091 392.425415,96.553848 387.713562,93.684502 
	C382.530487,90.528183 381.947357,90.747063 378.780914,95.841751 
	C372.116547,106.564423 362.805847,113.963104 350.671082,117.579857 
	C342.159058,120.116852 337.218170,117.990074 331.972656,110.930725 
	C328.933655,106.840904 325.296844,103.098167 321.435120,99.772850 
	C320.190155,98.700829 316.247803,98.539276 315.445251,99.520309 
	C307.684448,109.007217 300.392700,118.875870 292.813019,128.514450 
	C291.035858,130.774338 288.905670,132.912033 286.541016,134.523636 
	C280.819061,138.423401 274.557770,141.580231 269.074402,145.770111 
	C261.242371,151.754654 262.392365,159.237228 271.314362,162.920624 
	C286.847229,169.333328 300.101654,179.262451 312.814117,189.961609 
	C314.921265,191.735046 316.085754,194.628479 317.973541,197.431488 
	C313.564362,199.590546 309.976715,201.278168 306.451996,203.088303 
	C299.963409,206.420593 293.333160,209.528442 287.097595,213.286743 
	C281.423950,216.706345 280.385590,222.359207 284.738434,227.163696 
	C287.491180,230.202072 291.258057,232.770554 295.069763,234.322723 
	C311.349548,240.951996 325.855103,249.925476 338.730347,262.121063 
	C350.542603,273.309814 360.227631,286.035370 369.599945,299.117035 
	C370.690033,300.638489 370.582214,303.018188 370.792542,305.289551 
	C370.185638,308.815155 369.631256,312.042786 369.483704,315.288940 
	C369.149658,322.636383 369.016327,329.993011 368.531921,337.592102 
	C362.041229,347.457764 356.756439,357.872864 349.401245,366.528687 
	C334.713165,383.814178 319.277771,400.513916 303.424622,416.746155 
	C287.930511,432.610687 271.504578,447.563599 255.539886,462.970764 
	C245.293152,472.859650 234.824661,482.545441 225.012970,492.852844 
	C205.536270,513.313354 189.108368,536.086365 178.469894,562.337952 
	C172.266037,577.646545 167.135513,593.599976 163.572830,609.716675 
	C158.978912,630.498230 157.917755,651.878845 158.737946,673.181152 
	C159.472382,692.256104 160.471329,711.362305 162.561722,730.321533 
	C163.306931,737.080383 162.538544,742.940063 159.699814,748.531616 
	C150.754074,766.152344 141.335571,783.532288 132.257034,801.086548 
	C120.220329,824.360718 108.147896,847.629333 92.449005,868.706543 
	C89.418846,872.774841 85.101898,876.937622 80.497787,878.564880 
	C70.442337,882.119019 59.852734,884.209534 49.417843,886.623535 
	C43.654346,887.956848 37.762501,888.735291 31.502937,889.701111 
	C21.051580,891.758911 11.025790,893.879456 0.999999,896.000000 
z"/>
<path fill="#CB9402" opacity="1.000000" stroke="none" 
	d="
M1.000000,915.000000 
	C1.000000,914.250000 1.000000,913.500000 1.359492,912.529297 
	C9.877846,907.853027 17.834421,902.866211 27.587873,902.661011 
	C28.385977,902.644165 29.176561,902.270081 30.349594,902.143433 
	C45.306919,899.749573 60.002529,897.806702 74.426605,894.630676 
	C85.990280,892.084473 96.332100,886.447510 102.992393,876.112549 
	C112.226349,861.784058 121.355087,847.367310 129.918091,832.633301 
	C136.738785,820.897339 142.650208,808.632629 148.955872,796.597717 
	C155.808807,783.518188 162.430283,770.311035 169.568054,757.388977 
	C175.201035,747.191223 176.443634,736.779236 174.310333,725.370728 
	C172.640289,716.439697 171.617050,707.226257 171.726288,698.155334 
	C172.012497,674.387512 172.921051,650.622742 173.877106,626.868713 
	C174.669250,607.187256 181.075439,588.771423 188.310074,570.779358 
	C192.245712,560.991638 197.529953,551.580444 203.355316,542.758423 
	C211.475006,530.461853 220.068985,518.365906 229.583908,507.136383 
	C238.235214,496.926117 248.373688,487.973694 257.884796,478.495087 
	C263.274567,473.123779 268.599792,467.679169 274.166870,462.496155 
	C286.269806,451.228180 298.921204,440.516968 310.577148,428.810242 
	C322.271667,417.064758 333.223328,404.556183 344.145172,392.071136 
	C356.044098,378.469116 368.246216,365.049530 377.176331,348.747223 
	C378.852020,345.890015 380.119751,343.159576 381.763885,340.678650 
	C382.474548,339.606323 383.907501,338.480072 385.107971,338.363586 
	C388.896912,337.996002 392.732513,337.981812 396.547455,338.031342 
	C418.160278,338.311981 439.884338,339.574646 461.149384,334.706299 
	C472.424072,332.125061 483.358521,328.039795 494.418182,324.543671 
	C501.215363,322.394958 507.970184,320.109985 514.722168,317.821655 
	C518.772827,316.448853 522.706116,314.670990 526.824219,313.568451 
	C535.714111,311.188385 545.268188,310.934845 553.464355,304.997253 
	C560.922180,306.542267 568.267029,307.411621 574.941650,310.005524 
	C594.615356,317.651062 612.868042,328.184998 631.042847,338.854919 
	C649.217102,349.524536 666.687439,361.163879 683.150146,374.333252 
	C689.597107,379.490540 696.299072,384.329102 703.002319,389.623230 
	C705.064026,392.134399 706.861084,394.489563 708.979065,396.507904 
	C716.354004,403.535675 724.308716,410.016418 731.179810,417.497894 
	C742.992676,430.360199 754.422546,443.600861 765.484009,457.115753 
	C771.335754,464.265381 775.936218,472.425262 781.338501,479.959259 
	C795.611938,499.865051 807.317810,521.269653 817.465271,543.461243 
	C824.498169,558.841431 830.346252,574.775146 836.421692,590.577759 
	C841.425110,603.592285 846.645386,616.582520 850.585388,629.932922 
	C856.410400,649.670410 861.919922,669.559448 866.252808,689.666504 
	C874.790588,729.286621 882.417908,769.102905 890.443298,808.833679 
	C893.072083,821.847656 895.712524,834.859863 898.463928,847.848145 
	C899.354187,852.050354 901.672424,855.048950 906.285767,855.826050 
	C914.578857,857.222900 922.850342,858.748352 931.051270,860.619141 
	C930.196106,861.796509 929.471130,862.634460 928.636108,863.342773 
	C925.054565,866.380554 925.400574,869.003479 929.313538,871.445251 
	C931.229065,872.640564 932.659912,874.612488 933.821411,875.753052 
	C932.210754,878.181152 931.204407,879.698303 930.198120,881.215454 
	C931.699219,881.949036 933.182556,882.721985 934.705383,883.407043 
	C937.104248,884.486145 939.529541,885.506287 941.529602,886.747009 
	C922.672791,888.988342 904.975159,893.437378 888.288330,901.913391 
	C871.138977,910.624268 854.001709,919.498108 836.263306,926.865906 
	C822.223755,932.697205 807.424072,936.885132 792.702271,940.834412 
	C778.023804,944.772156 763.144409,948.344482 748.128113,950.533081 
	C732.555664,952.802795 716.713135,953.220215 700.530029,954.353516 
	C687.956909,953.744080 675.822693,953.507690 663.732849,952.648254 
	C645.519775,951.353333 627.280945,950.100342 609.158447,947.943970 
	C590.882446,945.769287 572.691162,942.771057 554.542114,939.669312 
	C530.315674,935.528809 506.196808,930.758972 481.968597,926.629944 
	C471.713806,924.882263 461.126984,922.279907 450.994354,923.246094 
	C433.881897,924.877991 417.022125,929.104675 400.034515,932.118408 
	C387.147980,934.404602 374.282196,936.928650 361.309540,938.579590 
	C343.181641,940.886719 324.938049,942.271118 306.788727,944.427124 
	C280.459839,947.554810 254.083633,948.680908 227.587311,947.684692 
	C201.046967,946.686646 175.021057,942.663696 149.409744,935.625977 
	C139.172668,932.812927 128.817459,930.310303 118.389336,928.335510 
	C92.458939,923.425171 66.056892,924.503540 39.894894,922.521851 
	C26.749107,921.526184 13.259409,921.106262 1.000000,915.000000 
M400.344696,787.589661 
	C410.668304,795.478516 422.763123,799.821228 435.042725,802.770874 
	C453.836853,807.285400 472.983093,810.333984 492.139130,814.928833 
	C492.080078,817.254456 492.073944,819.582825 491.952881,821.905212 
	C491.391357,832.678894 490.797333,843.450745 490.216431,854.223389 
	C490.020386,857.859253 491.714081,858.931152 495.095428,858.031555 
	C495.095428,855.877441 494.304352,853.344788 495.230530,852.193848 
	C499.557709,846.816345 504.358582,841.820068 509.005341,837.461548 
	C510.405548,844.510254 512.992859,838.154541 515.395813,838.554871 
	C520.555359,844.526611 527.124329,849.474487 530.265015,857.955994 
	C531.027466,855.279785 531.789917,852.603516 532.541809,849.964294 
	C533.081360,850.930725 533.611511,851.880371 534.120361,853.280762 
	C534.194946,853.542114 534.269592,853.803528 534.344177,854.064880 
	C534.415466,853.956970 534.572021,853.809631 534.543457,853.747864 
	C534.408569,853.456177 534.223145,853.187866 533.974365,852.066040 
	C530.927246,836.770874 527.880127,821.475647 524.713867,805.582397 
	C531.047791,804.887146 537.258850,804.205383 544.359131,803.777954 
	C547.632446,804.063782 550.986511,804.935730 554.160278,804.498657 
	C558.981567,803.834717 563.685913,802.294373 568.424072,801.065063 
	C571.777893,800.195007 575.168945,799.404358 578.430603,798.257568 
	C584.003662,796.298157 589.348877,793.541138 595.037415,792.089172 
	C609.405029,788.421753 621.949341,781.221252 633.578857,772.471008 
	C638.014282,769.133667 641.133118,764.046326 645.130737,759.160400 
	C647.080933,757.141846 648.991394,755.083191 650.987610,753.111206 
	C664.898132,739.370361 669.324158,717.218811 661.441956,699.259583 
	C656.291870,687.525452 647.461060,678.939026 637.040039,671.755432 
	C613.392456,655.453979 585.917358,648.199646 559.340027,638.892822 
	C546.353271,634.345032 533.006653,630.830811 519.893677,626.627991 
	C518.552246,626.198120 517.697449,624.249756 516.731628,622.249695 
	C516.558350,621.509521 516.385132,620.769287 516.468384,619.255493 
	C516.197998,617.170227 515.927551,615.084900 515.737122,612.100769 
	C514.215698,592.760193 512.685730,573.420227 511.177643,554.078613 
	C510.692383,547.855286 510.264587,541.627441 509.802826,535.296936 
	C510.632294,535.192200 511.098785,535.071472 511.561737,535.083801 
	C526.761902,535.485779 541.502686,538.411743 555.710510,543.722168 
	C562.520996,546.267761 570.030579,548.340393 575.506592,552.756348 
	C585.630920,560.920837 594.768738,570.390320 603.731262,579.870483 
	C606.978516,583.305298 610.085754,584.369812 614.228333,583.534241 
	C620.403503,582.288635 625.992249,577.240967 626.048706,571.027710 
	C626.213379,552.925293 625.869202,534.805298 625.067810,516.721252 
	C624.948792,514.035889 621.283325,511.507629 618.944580,508.263672 
	C617.975098,507.676605 617.069946,506.761078 616.025574,506.556427 
	C609.899292,505.356262 602.334106,512.183960 602.686951,518.422058 
	C602.784973,520.155518 602.701904,521.899231 602.701904,524.262939 
	C573.212769,507.414062 542.444275,498.998596 508.694336,502.451233 
	C507.673706,489.512207 506.713043,477.332825 505.671631,464.130188 
	C503.317322,465.640839 501.161987,466.402527 499.959412,467.919464 
	C497.092682,471.535553 494.745575,475.558228 492.050995,479.318115 
	C490.449768,481.552429 488.587646,483.599823 486.623657,485.999084 
	C480.207794,478.906769 474.705048,472.823822 469.202301,466.740875 
	C468.692627,466.853668 468.182953,466.966461 467.673279,467.079254 
	C467.211456,470.417542 466.165588,473.797791 466.402039,477.085876 
	C467.008545,485.519806 468.132202,493.919128 469.155029,502.319397 
	C469.671570,506.561829 468.641693,508.934265 463.820984,509.972076 
	C454.740295,511.927032 445.670593,514.254639 436.924591,517.353760 
	C427.865875,520.563721 419.213806,524.913025 410.353027,528.691711 
	C396.730225,534.501038 384.467590,542.447571 374.516418,553.382996 
	C364.404816,564.494690 359.178467,577.658447 365.448303,592.313049 
	C368.416656,599.250977 373.705780,605.523865 379.029266,611.052490 
	C387.865479,620.229248 399.226868,626.095703 410.966156,630.561401 
	C432.687439,638.824402 454.645020,646.494385 476.687286,653.863708 
	C481.642242,655.520264 482.986450,658.064758 483.245605,662.635315 
	C484.580750,686.180298 486.078461,709.716003 487.501190,733.256104 
	C488.152466,744.031677 488.730377,754.811829 489.406189,765.585876 
	C489.670380,769.797974 487.775970,770.872864 483.927765,769.891968 
	C481.362305,769.238098 478.705719,768.941650 475.502411,768.142395 
	C465.329285,765.449463 455.156189,762.756531 444.503662,759.568542 
	C440.548462,757.829712 436.581818,756.116455 432.640350,754.347107 
	C423.072601,750.052307 413.741882,745.437988 406.332520,737.666199 
	C400.346405,731.387207 399.375214,724.328308 405.407074,718.298584 
	C408.977478,714.729431 414.010834,711.546631 418.862976,710.578369 
	C427.043640,708.945740 435.597565,709.081604 444.005188,708.725586 
	C449.297424,708.501526 450.828796,706.637085 448.944275,701.587585 
	C448.384766,700.088501 447.330261,698.664001 446.193298,697.509949 
	C441.469696,692.714966 435.704926,689.852295 428.986389,689.337036 
	C403.132568,687.354248 381.606934,696.145691 365.678436,716.622253 
	C359.446198,724.634033 358.123718,734.314148 362.168793,744.444153 
	C366.054626,754.175415 371.723206,762.510132 379.079529,770.566772 
	C379.288208,771.357666 379.233246,772.518433 379.745453,772.883362 
	C386.445404,777.658020 393.225525,782.320129 400.344696,787.589661 
z"/>
<path fill="#070718" opacity="1.000000" stroke="none" 
	d="
M1.000000,915.464661 
	C13.259409,921.106262 26.749107,921.526184 39.894894,922.521851 
	C66.056892,924.503540 92.458939,923.425171 118.389336,928.335510 
	C128.817459,930.310303 139.172668,932.812927 149.409744,935.625977 
	C175.021057,942.663696 201.046967,946.686646 227.587311,947.684692 
	C254.083633,948.680908 280.459839,947.554810 306.788727,944.427124 
	C324.938049,942.271118 343.181641,940.886719 361.309540,938.579590 
	C374.282196,936.928650 387.147980,934.404602 400.034515,932.118408 
	C417.022125,929.104675 433.881897,924.877991 450.994354,923.246094 
	C461.126984,922.279907 471.713806,924.882263 481.968597,926.629944 
	C506.196808,930.758972 530.315674,935.528809 554.542114,939.669312 
	C572.691162,942.771057 590.882446,945.769287 609.158447,947.943970 
	C627.280945,950.100342 645.519775,951.353333 663.732849,952.648254 
	C675.822693,953.507690 687.956909,953.744080 700.533020,954.737427 
	C700.723450,961.838013 699.232361,963.232910 692.450012,963.012634 
	C689.655762,962.921814 687.907410,963.841614 687.999939,966.938110 
	C674.582581,966.187500 661.159607,965.522400 647.749817,964.654724 
	C639.474060,964.119324 631.174561,963.602722 622.961609,962.508423 
	C598.166565,959.204895 573.340332,956.042908 548.656250,952.026733 
	C525.905273,948.325134 503.369354,943.315491 480.645050,939.429993 
	C469.930176,937.597900 459.197510,934.715027 448.083160,936.865540 
	C435.401398,939.319275 422.723877,941.854309 409.963135,943.827759 
	C383.575134,947.908813 357.198578,952.189941 330.693329,955.348083 
	C308.311737,958.014893 285.783600,959.784485 263.268280,960.906433 
	C238.849396,962.123230 214.316528,961.559998 190.204391,957.302002 
	C171.127777,953.933228 152.501007,948.035522 133.435257,944.581238 
	C115.854729,941.395996 97.993652,939.570251 80.186760,937.873962 
	C60.513985,935.999939 40.738029,935.217102 21.058687,933.399475 
	C14.541380,932.797607 8.184305,930.460815 1.376982,928.958679 
	C1.000000,924.643127 1.000000,920.286194 1.000000,915.464661 
z"/>
<path fill="#070718" opacity="1.000000" stroke="none" 
	d="
M29.970642,902.062012 
	C29.176561,902.270081 28.385977,902.644165 27.587873,902.661011 
	C17.834421,902.866211 9.877846,907.853027 1.359492,912.154297 
	C1.000000,906.977905 1.000000,901.955811 0.999999,896.466858 
	C11.025790,893.879456 21.051580,891.758911 31.461298,890.093140 
	C31.220366,894.385925 30.595505,898.223999 29.970642,902.062012 
z"/>
<path fill="#3C46FF" opacity="1.000000" stroke="none" 
	d="
M1009.022522,1009.148926 
	C1014.037170,1009.098999 1019.051758,1009.049072 1024.533203,1008.999512 
	C1025.000000,1014.258423 1025.000000,1019.516846 1025.000000,1025.000000 
	C1019.982300,1025.000000 1014.962341,1025.000000 1009.471191,1024.533447 
	C1009.007507,1019.094238 1009.015015,1014.121643 1009.022522,1009.148926 
z"/>
<path fill="#FF6E3C" opacity="1.000000" stroke="none" 
	d="
M1008.558899,1009.096741 
	C1009.015015,1014.121643 1009.007507,1019.094238 1009.000000,1024.533447 
	C1003.977905,1025.000000 998.955811,1025.000000 993.466858,1024.533447 
	C992.997742,1019.096069 992.995483,1014.125305 992.993225,1009.154602 
	C998.027222,1009.117859 1003.061279,1009.081177 1008.558899,1009.096741 
z"/>
<path fill="#FFFF66" opacity="1.000000" stroke="none" 
	d="
M945.466797,1025.000000 
	C945.002563,1020.888794 945.108948,1016.774109 944.971741,1012.667603 
	C944.877808,1009.858704 946.069519,1008.872009 948.776428,1008.973206 
	C952.553772,1009.114380 956.339417,1009.032471 960.566772,1009.539917 
	C961.008057,1015.022522 961.004028,1020.011230 961.000000,1025.000000 
	C955.977905,1025.000000 950.955811,1025.000000 945.466797,1025.000000 
z"/>
<path fill="#42FFFF" opacity="1.000000" stroke="none" 
	d="
M961.466858,1025.000000 
	C961.004028,1020.011230 961.008057,1015.022522 961.036743,1009.577026 
	C966.062683,1009.086853 971.064087,1009.053467 976.530151,1009.546082 
	C976.996582,1015.048096 976.998291,1020.024048 977.000000,1025.000000 
	C971.977905,1025.000000 966.955811,1025.000000 961.466858,1025.000000 
z"/>
<path fill="#51DA4C" opacity="1.000000" stroke="none" 
	d="
M977.466858,1025.000000 
	C976.998291,1020.024048 976.996582,1015.048096 976.991211,1009.616638 
	C982.012878,1009.119568 987.038208,1009.078064 992.528381,1009.095581 
	C992.995483,1014.125305 992.997742,1019.096069 993.000000,1024.533447 
	C987.977905,1025.000000 982.955811,1025.000000 977.466858,1025.000000 
z"/>
<path fill="#060612" opacity="1.000000" stroke="none" 
	d="
M553.045044,305.109680 
	C545.268188,310.934845 535.714111,311.188385 526.824219,313.568451 
	C522.706116,314.670990 518.772827,316.448853 514.722168,317.821655 
	C507.970184,320.109985 501.215363,322.394958 494.418182,324.543671 
	C483.358521,328.039795 472.424072,332.125061 461.149384,334.706299 
	C439.884338,339.574646 418.160278,338.311981 396.547455,338.031342 
	C392.732513,337.981812 388.896912,337.996002 385.107971,338.363586 
	C383.907501,338.480072 382.474548,339.606323 381.763885,340.678650 
	C380.119751,343.159576 378.852020,345.890015 376.820496,348.733917 
	C370.902039,346.893005 370.821320,341.500397 368.801392,337.345886 
	C369.016327,329.993011 369.149658,322.636383 369.483704,315.288940 
	C369.631256,312.042786 370.185638,308.815155 371.188171,305.283234 
	C372.789673,304.520203 374.195709,304.312744 374.653351,303.542084 
	C376.946411,299.680756 378.991058,295.671936 381.463928,291.731201 
	C389.861389,286.089508 398.576141,285.853607 408.346191,289.269806 
	C407.311340,284.838196 406.439667,281.173798 405.600891,277.501831 
	C400.808258,256.520752 396.100006,235.519836 391.160583,214.573410 
	C390.337494,211.082993 388.519867,207.827087 387.135223,204.396957 
	C383.794739,206.710800 381.397675,208.371155 379.057556,209.680176 
	C383.430542,202.519669 383.584442,197.938477 379.825684,193.511078 
	C381.449432,187.949661 379.827972,186.082169 374.920837,187.313248 
	C373.642120,187.634033 372.356110,187.925781 370.866089,187.952393 
	C368.104645,184.845413 365.550537,182.016876 363.347900,179.161774 
	C363.541504,178.301270 363.663788,177.223679 363.182892,176.670624 
	C357.759552,170.433655 352.318329,164.208649 346.728577,158.121201 
	C342.388275,153.394424 345.596191,148.272141 345.987549,143.306427 
	C347.980042,143.516876 349.602112,143.771118 351.232788,143.943741 
	C361.222534,145.001221 370.535126,144.073181 378.332672,136.536835 
	C383.976685,131.081879 384.504211,123.665413 387.435364,116.999771 
	C389.886292,117.990448 391.895020,119.090790 394.006989,119.931984 
	C395.411255,120.491295 396.947723,120.788208 398.453522,121.000809 
	C399.640472,121.168381 400.870941,121.028000 401.908508,121.301277 
	C398.372925,123.911972 399.943451,126.392395 401.586548,129.219025 
	C398.866364,135.079712 396.077728,140.594330 392.617920,147.436264 
	C400.361725,145.427078 406.939270,143.720505 413.885468,142.037201 
	C420.357849,142.024521 425.564087,147.464844 432.366516,145.195007 
	C433.853119,152.136627 435.042358,158.863297 436.319183,166.085693 
	C436.167816,166.085693 436.990295,166.235718 437.738739,166.063690 
	C454.842010,162.132401 471.916534,158.072845 489.050110,154.279724 
	C492.755035,153.459518 494.798523,151.439972 496.113678,148.152359 
	C497.345490,145.073212 498.715424,142.049332 500.440063,139.001099 
	C502.628418,139.001083 504.401276,139.001083 506.174164,139.001083 
	C505.922638,139.565048 505.671112,140.129013 505.419586,140.692963 
	C507.030609,141.962921 508.641663,143.232880 510.252716,144.502838 
	C511.184235,143.284332 512.115723,142.065857 513.388672,140.945435 
	C516.147156,141.008087 518.564209,140.972672 521.047302,141.294281 
	C523.553772,144.414047 526.040833,147.158020 524.770508,151.547913 
	C513.301392,159.585159 501.585205,166.496933 487.949432,169.103592 
	C471.071075,172.330124 454.122162,175.187256 437.204437,178.208008 
	C433.222961,178.918915 429.244415,179.646027 425.264496,180.365692 
	C425.304993,181.029129 425.345490,181.692551 425.385986,182.355988 
	C427.902100,182.816589 430.471191,183.864380 432.925842,183.643082 
	C449.594635,182.140320 466.329987,180.975861 482.864258,178.501999 
	C497.143250,176.365585 509.863495,169.594971 521.942627,162.158905 
	C522.583984,164.160812 523.186707,165.771606 523.831604,167.365326 
	C524.905762,170.019699 526.006958,172.663101 526.875244,175.553467 
	C498.076813,193.758759 465.790710,196.793976 434.231171,198.171371 
	C440.439301,213.272629 446.302765,228.081955 452.607239,242.701080 
	C457.805664,254.755447 459.843964,267.481873 461.745728,280.290497 
	C461.881378,281.204071 462.190887,282.492798 462.843048,282.864868 
	C467.820435,285.704620 472.903107,288.359924 478.427551,291.327515 
	C479.027069,286.081909 480.060272,281.941345 482.708588,277.501709 
	C486.304504,271.473541 490.583466,268.768890 496.668884,266.893097 
	C502.713654,265.029877 508.339050,262.590302 510.272522,255.277725 
	C515.365112,236.016785 521.113892,216.927643 526.083923,197.636780 
	C528.097412,189.821762 528.767639,181.660706 530.062012,173.324036 
	C530.547546,172.408844 530.956604,171.390182 531.502563,171.310623 
	C538.749878,170.254669 539.284485,169.294937 535.349792,163.213242 
	C537.056274,162.104996 538.760864,160.997955 539.836670,160.299316 
	C542.293152,162.203522 544.096375,163.601288 545.883667,165.405258 
	C541.182312,200.186905 529.615662,232.823822 520.479553,266.118378 
	C534.194031,258.351837 534.236450,258.383698 551.763916,263.015106 
	C552.563843,263.226501 553.821106,261.707001 555.239014,261.005341 
	C557.306702,260.930573 559.003052,260.875244 560.694275,260.750458 
	C563.236511,260.562805 565.775146,260.326477 568.315308,260.110870 
	C567.020508,263.269989 565.496521,266.359375 564.507324,269.611450 
	C563.784729,271.986786 563.766357,274.576324 562.989624,277.585571 
	C561.732605,279.266235 560.752563,280.350952 560.143127,281.614380 
	C558.958252,284.070801 558.442017,286.984314 556.825806,289.071014 
	C553.050720,293.944916 550.877075,298.948242 553.045044,305.109680 
M478.280945,311.307007 
	C477.530579,310.722229 476.358276,310.285034 476.094208,309.530151 
	C473.017853,300.736511 466.043518,296.547791 457.741943,294.213226 
	C449.255463,291.826630 440.497131,290.507812 433.130432,296.891266 
	C428.315643,301.063416 423.625763,305.741455 420.273682,311.069733 
	C418.842651,313.344360 420.202484,318.255341 421.752533,321.200897 
	C422.712219,323.024475 426.389404,324.188538 428.891022,324.268921 
	C434.005951,324.433319 439.156586,323.731323 444.282196,323.271027 
	C456.305908,322.191254 468.545135,321.924316 479.775482,314.651581 
	C480.766205,314.578491 481.837677,314.726532 482.735382,314.398773 
	C493.759888,310.373779 504.742706,306.234192 515.779663,302.244232 
	C517.748047,301.532715 519.921814,300.973846 521.986694,301.017120 
	C530.726318,301.200256 539.065735,299.984070 546.918701,295.791840 
	C554.045532,291.987213 556.183228,283.164001 551.049011,277.507446 
	C545.103821,270.957489 533.689148,269.947021 526.837097,275.539337 
	C522.284729,279.254852 517.660889,280.588104 512.187927,277.515564 
	C510.503326,276.569855 508.421692,276.308258 506.502594,275.807343 
	C499.686890,274.028290 493.189301,282.012817 490.843536,287.593719 
	C489.347351,291.153351 489.146667,295.331177 488.766846,299.270599 
	C488.034790,306.863739 485.575378,310.137207 478.280945,311.307007 
M437.367096,239.286575 
	C431.935333,228.096481 426.865997,216.709885 420.942474,205.786453 
	C417.090271,198.682617 411.619629,192.889435 401.225372,194.435822 
	C407.954956,226.819260 414.622162,258.902313 421.076813,289.962616 
	C429.506317,286.206940 437.963684,282.438812 447.149323,278.346222 
	C446.673035,275.403473 446.322632,271.258789 445.295135,267.289368 
	C442.929474,258.150391 440.234619,249.096619 437.367096,239.286575 
M408.873047,302.480896 
	C403.083313,298.554657 392.371826,297.847778 387.572083,301.075195 
	C379.926483,306.216156 378.336975,310.706024 380.155334,320.175201 
	C380.746033,323.251465 381.940613,324.339935 385.041077,324.277924 
	C393.685089,324.105072 402.334473,324.197052 410.981720,324.185883 
	C413.208862,324.183014 415.436005,324.185455 418.328949,324.185455 
	C416.021576,319.116302 414.170563,315.049744 412.126862,310.559906 
	C413.585358,307.042877 413.585358,307.042877 408.873047,302.480896 
M396.218781,176.502075 
	C398.685303,176.763016 401.146484,177.168350 403.619263,177.259933 
	C414.442749,177.660828 421.053101,171.508362 421.012054,160.706863 
	C421.005920,159.094864 419.236694,156.324188 417.943787,156.106674 
	C414.434296,155.516312 410.520081,155.240829 407.163300,156.212280 
	C395.474121,159.595139 383.703888,161.041016 371.294037,159.306885 
	C377.550934,167.972076 384.239716,175.301102 396.218781,176.502075 
z"/>
<path fill="#08071B" opacity="1.000000" stroke="none" 
	d="
M688.426147,967.036377 
	C687.907410,963.841614 689.655762,962.921814 692.450012,963.012634 
	C699.232361,963.232910 700.723450,961.838013 700.991821,954.831604 
	C716.713135,953.220215 732.555664,952.802795 748.128113,950.533081 
	C763.144409,948.344482 778.023804,944.772156 792.702271,940.834412 
	C807.424072,936.885132 822.223755,932.697205 836.263306,926.865906 
	C854.001709,919.498108 871.138977,910.624268 888.288330,901.913391 
	C904.975159,893.437378 922.672791,888.988342 941.910156,886.721313 
	C957.027649,884.048523 971.500854,882.228516 985.607605,878.869873 
	C992.296509,877.277283 998.466003,873.040100 1004.475769,869.356628 
	C1006.161682,868.323303 1006.445251,865.002075 1007.372070,862.730286 
	C1005.033386,861.795105 1002.701172,860.070435 1000.354919,860.051270 
	C983.573730,859.914185 966.789795,860.134644 950.006592,860.218811 
	C943.714783,860.250366 937.422791,860.221436 931.130859,860.220093 
	C922.850342,858.748352 914.578857,857.222900 906.285767,855.826050 
	C901.672424,855.048950 899.354187,852.050354 898.463928,847.848145 
	C895.712524,834.859863 893.072083,821.847656 890.443298,808.833679 
	C882.417908,769.102905 874.790588,729.286621 866.252808,689.666504 
	C861.919922,669.559448 856.410400,649.670410 850.585388,629.932922 
	C846.645386,616.582520 841.425110,603.592285 836.421692,590.577759 
	C830.346252,574.775146 824.498169,558.841431 817.465271,543.461243 
	C807.317810,521.269653 795.611938,499.865051 781.338501,479.959259 
	C775.936218,472.425262 771.335754,464.265381 765.484009,457.115753 
	C754.422546,443.600861 742.992676,430.360199 731.179810,417.497894 
	C724.308716,410.016418 716.354004,403.535675 708.979065,396.507904 
	C706.861084,394.489563 705.064026,392.134399 703.041138,389.243530 
	C705.003052,385.632874 707.043579,382.712311 709.084045,379.791748 
	C711.828430,382.070282 714.718323,384.196472 717.291748,386.654053 
	C727.715881,396.608887 738.677612,406.097656 748.262634,416.812531 
	C764.309753,434.751312 780.155640,452.962219 792.625488,473.726105 
	C802.029358,489.384766 812.264893,504.646912 820.355103,520.965637 
	C830.584167,541.598755 839.822449,562.817505 847.991333,584.351440 
	C856.390747,606.493042 863.635376,629.132141 870.178223,651.900391 
	C875.858704,671.667969 880.304382,691.826599 884.486023,711.980347 
	C890.818909,742.501709 896.439331,773.170837 902.383179,803.773132 
	C904.691162,815.656067 907.141968,827.512024 909.345825,839.413940 
	C910.082581,843.393005 911.954834,845.739807 916.093506,846.096985 
	C920.063904,846.439636 924.025024,847.171753 927.994141,847.200745 
	C952.322449,847.378418 976.651855,847.471985 1000.980774,847.446350 
	C1009.843018,847.437073 1015.935974,851.508728 1019.297546,859.451233 
	C1021.886719,865.568726 1019.111023,875.113647 1012.022095,879.719543 
	C1004.503174,884.604736 996.242859,889.479614 987.650208,891.358643 
	C966.165955,896.056763 944.105835,898.166382 922.683594,903.085876 
	C910.723755,905.832336 899.319519,911.576904 888.117798,916.919739 
	C867.278809,926.859253 846.981750,937.943115 824.684509,944.553833 
	C809.564941,949.036499 794.669189,954.327637 779.431763,958.339661 
	C769.685059,960.905945 759.553406,962.458557 749.496704,963.304504 
	C729.317322,965.002075 709.071045,965.904175 688.426147,967.036377 
z"/>
<path fill="#08081C" opacity="1.000000" stroke="none" 
	d="
M368.531921,337.592102 
	C370.821320,341.500397 370.902039,346.893005 376.565216,348.961884 
	C368.246216,365.049530 356.044098,378.469116 344.145172,392.071136 
	C333.223328,404.556183 322.271667,417.064758 310.577148,428.810242 
	C298.921204,440.516968 286.269806,451.228180 274.166870,462.496155 
	C268.599792,467.679169 263.274567,473.123779 257.884796,478.495087 
	C248.373688,487.973694 238.235214,496.926117 229.583908,507.136383 
	C220.068985,518.365906 211.475006,530.461853 203.355316,542.758423 
	C197.529953,551.580444 192.245712,560.991638 188.310074,570.779358 
	C181.075439,588.771423 174.669250,607.187256 173.877106,626.868713 
	C172.921051,650.622742 172.012497,674.387512 171.726288,698.155334 
	C171.617050,707.226257 172.640289,716.439697 174.310333,725.370728 
	C176.443634,736.779236 175.201035,747.191223 169.568054,757.388977 
	C162.430283,770.311035 155.808807,783.518188 148.955872,796.597717 
	C142.650208,808.632629 136.738785,820.897339 129.918091,832.633301 
	C121.355087,847.367310 112.226349,861.784058 102.992393,876.112549 
	C96.332100,886.447510 85.990280,892.084473 74.426605,894.630676 
	C60.002529,897.806702 45.306919,899.749573 30.349598,902.143433 
	C30.595505,898.223999 31.220366,894.385925 31.886864,890.155884 
	C37.762501,888.735291 43.654346,887.956848 49.417843,886.623535 
	C59.852734,884.209534 70.442337,882.119019 80.497787,878.564880 
	C85.101898,876.937622 89.418846,872.774841 92.449005,868.706543 
	C108.147896,847.629333 120.220329,824.360718 132.257034,801.086548 
	C141.335571,783.532288 150.754074,766.152344 159.699814,748.531616 
	C162.538544,742.940063 163.306931,737.080383 162.561722,730.321533 
	C160.471329,711.362305 159.472382,692.256104 158.737946,673.181152 
	C157.917755,651.878845 158.978912,630.498230 163.572830,609.716675 
	C167.135513,593.599976 172.266037,577.646545 178.469894,562.337952 
	C189.108368,536.086365 205.536270,513.313354 225.012970,492.852844 
	C234.824661,482.545441 245.293152,472.859650 255.539886,462.970764 
	C271.504578,447.563599 287.930511,432.610687 303.424622,416.746155 
	C319.277771,400.513916 334.713165,383.814178 349.401245,366.528687 
	C356.756439,357.872864 362.041229,347.457764 368.531921,337.592102 
z"/>
<path fill="#070617" opacity="1.000000" stroke="none" 
	d="
M381.123016,291.714966 
	C378.991058,295.671936 376.946411,299.680756 374.653351,303.542084 
	C374.195709,304.312744 372.789673,304.520203 371.425354,304.993683 
	C370.582214,303.018188 370.690033,300.638489 369.599945,299.117035 
	C360.227631,286.035370 350.542603,273.309814 338.730347,262.121063 
	C325.855103,249.925476 311.349548,240.951996 295.069763,234.322723 
	C291.258057,232.770554 287.491180,230.202072 284.738434,227.163696 
	C280.385590,222.359207 281.423950,216.706345 287.097595,213.286743 
	C293.333160,209.528442 299.963409,206.420593 306.451996,203.088303 
	C309.976715,201.278168 313.564362,199.590546 317.973541,197.431488 
	C316.085754,194.628479 314.921265,191.735046 312.814117,189.961609 
	C300.101654,179.262451 286.847229,169.333328 271.314362,162.920624 
	C262.392365,159.237228 261.242371,151.754654 269.074402,145.770111 
	C274.557770,141.580231 280.819061,138.423401 286.541016,134.523636 
	C288.905670,132.912033 291.035858,130.774338 292.813019,128.514450 
	C300.392700,118.875870 307.684448,109.007217 315.445251,99.520309 
	C316.247803,98.539276 320.190155,98.700829 321.435120,99.772850 
	C325.296844,103.098167 328.933655,106.840904 331.972656,110.930725 
	C337.218170,117.990074 342.159058,120.116852 350.671082,117.579857 
	C362.805847,113.963104 372.116547,106.564423 378.780914,95.841751 
	C381.947357,90.747063 382.530487,90.528183 387.713562,93.684502 
	C392.425415,96.553848 394.710480,101.057091 396.041779,106.211998 
	C396.707367,108.789322 397.547302,111.321609 398.497253,114.507530 
	C407.429535,109.215454 415.327850,103.672981 423.941132,99.668381 
	C433.101440,95.409447 440.914154,89.455093 448.760529,83.399681 
	C451.580414,81.223450 453.894379,78.260559 456.936615,76.532089 
	C462.417816,73.417938 468.765015,76.919022 469.186707,83.291199 
	C469.445709,87.205399 468.577942,91.194153 467.806671,95.620117 
	C463.197571,98.953377 463.236450,99.504623 467.992188,102.302780 
	C468.730042,103.659576 469.290741,104.731201 469.851471,105.802826 
	C470.373657,106.181793 470.895874,106.560768 471.418060,106.939735 
	C471.949127,105.774559 472.480194,104.609383 473.011230,103.444214 
	C473.775726,103.009804 474.540192,102.575371 476.017944,102.090057 
	C477.762360,101.920357 478.793518,101.801537 479.978699,102.019058 
	C480.087158,104.239296 480.041626,106.123192 479.696594,108.175926 
	C475.845215,110.023346 475.641663,112.754967 476.643921,116.073647 
	C474.882782,116.540085 473.474609,116.909676 472.047394,116.868408 
	C472.221710,113.162567 470.336975,111.126373 467.404297,111.393967 
	C466.208557,111.503067 465.132874,114.331795 464.268738,116.056541 
	C463.859406,116.873558 464.075684,118.004036 463.660828,118.994232 
	C462.385895,118.996849 461.458710,118.997742 460.347168,118.639923 
	C459.855255,116.978607 458.897797,115.368591 459.345032,114.422981 
	C462.376434,108.013725 459.536804,102.093704 458.833282,95.410248 
	C450.474121,99.489235 442.866699,103.201401 434.864014,106.935509 
	C432.320251,107.636871 430.171722,108.316292 427.747559,108.847015 
	C421.210938,108.870918 416.532257,112.361259 411.777344,116.308235 
	C410.753448,117.009445 409.920471,117.494629 408.731476,117.989929 
	C407.241180,118.672264 406.106873,119.344467 404.984253,120.007286 
	C404.995911,119.997902 405.019440,119.979424 404.706360,120.021690 
	C403.622894,120.384102 402.852478,120.704247 402.082062,121.024399 
	C400.870941,121.028000 399.640472,121.168381 398.453522,121.000809 
	C396.947723,120.788208 395.411255,120.491295 394.006989,119.931984 
	C391.895020,119.090790 389.886292,117.990448 387.413177,116.570267 
	C386.562103,113.190247 386.131500,110.240234 385.700928,107.290222 
	C373.226318,126.417175 355.995880,133.010559 334.364014,129.828674 
	C333.407043,132.045563 332.501556,134.143158 331.346710,136.509186 
	C327.656372,141.382111 324.608978,146.360886 320.675629,150.497162 
	C315.660370,155.771194 309.928986,160.364243 304.213196,165.514923 
	C307.440826,167.824692 309.924103,169.170364 311.864899,171.070175 
	C318.118530,177.191711 324.277557,183.419159 330.250610,189.813538 
	C332.594299,192.322586 334.873322,192.696274 337.741364,191.227264 
	C342.764099,188.654541 347.749664,186.004532 352.829590,183.549942 
	C356.146606,181.947189 359.602661,180.632202 362.996460,179.188324 
	C365.550537,182.016876 368.104645,184.845413 370.678162,188.245392 
	C369.469147,189.607086 368.328827,190.614304 366.998810,191.154343 
	C352.033569,197.230774 337.039185,203.235413 321.693695,209.249573 
	C314.115173,212.740494 306.895569,216.241180 298.730682,220.200211 
	C304.273895,222.487625 308.378021,225.363510 313.642059,222.228760 
	C317.003876,221.124680 319.999359,220.032822 323.092957,219.285248 
	C328.867798,219.345917 334.837677,225.391495 340.272400,218.414444 
	C340.962708,220.960327 341.550751,223.129105 341.871460,225.537567 
	C335.477753,227.810379 329.351349,229.843491 322.674561,232.059265 
	C324.108978,233.373138 324.943207,234.435013 326.025208,235.083496 
	C341.047241,244.086945 352.885803,256.629364 364.127655,269.736664 
	C370.149048,276.757233 375.480316,284.369629 381.123016,291.714966 
M314.716705,137.171310 
	C319.760651,129.996964 320.495148,122.174828 318.089722,113.690880 
	C313.158234,120.611832 309.551514,128.344452 304.362885,134.807007 
	C299.227692,141.203094 292.496216,146.317581 286.207458,152.236542 
	C296.109711,155.126648 306.207764,146.521484 314.716705,137.171310 
z"/>
<path fill="#04040E" opacity="1.000000" stroke="none" 
	d="
M409.087463,117.979797 
	C409.920471,117.494629 410.753448,117.009445 412.155243,116.259895 
	C417.823792,113.662262 422.923523,111.329002 428.023224,108.995728 
	C430.171722,108.316292 432.320251,107.636871 435.202759,107.103760 
	C446.273743,108.091812 453.391327,113.816154 458.540710,124.102684 
	C459.633820,121.300148 460.082642,120.149391 460.531494,118.998634 
	C461.458710,118.997742 462.385895,118.996849 463.928833,119.141136 
	C465.381470,119.864754 466.218384,120.443199 467.078033,121.405518 
	C468.636169,122.596451 470.208008,124.155411 471.700714,124.082993 
	C478.914490,123.733025 485.875244,122.379837 490.893433,115.861725 
	C490.942444,113.446342 490.955475,111.515388 491.311829,109.474327 
	C491.710602,107.218307 491.766083,105.072395 491.821564,102.926483 
	C490.082581,103.399353 488.164612,103.563416 486.657745,104.436813 
	C485.301636,105.222847 484.396423,106.786880 482.880371,108.004379 
	C481.644287,108.003021 480.820190,108.005058 479.996094,108.007095 
	C480.041626,106.123192 480.087158,104.239296 480.086334,101.737900 
	C480.393341,100.158051 480.746704,99.195694 481.100098,98.233353 
	C481.709167,97.760468 482.318237,97.287582 483.615845,96.837173 
	C486.697937,95.544815 489.145477,94.310913 491.409241,92.801414 
	C491.661163,92.633430 490.866974,90.896667 490.557922,89.887436 
	C494.575958,83.262779 494.632629,83.260818 498.976196,89.598648 
	C500.730469,92.158325 507.733765,94.460915 510.963074,93.154564 
	C523.389221,88.127853 535.749878,82.939407 548.663086,78.067963 
	C550.204163,79.080391 551.425659,80.651817 552.194885,80.455040 
	C556.194275,79.431946 558.322327,81.980988 560.786804,84.200241 
	C561.719055,85.039772 563.038452,85.449471 564.181335,86.055115 
	C564.546875,88.596756 564.912415,91.138397 565.698242,94.211304 
	C566.571838,97.770531 567.858704,100.152664 570.882935,101.381104 
	C568.903137,104.228760 567.039490,106.753456 565.238647,109.322159 
	C563.492065,111.813591 564.216248,112.981453 567.398254,112.929276 
	C567.817688,113.200600 567.995789,113.412666 568.083374,114.081070 
	C566.366760,117.006477 564.676270,119.529655 562.635925,122.053818 
	C559.343018,125.375175 556.399963,128.695557 553.115845,132.033203 
	C548.550903,133.224030 547.541077,137.139694 549.309570,139.661285 
	C551.324646,142.534348 551.568115,144.908737 550.660828,147.990143 
	C548.832031,153.730225 547.365784,159.364624 545.899536,164.999054 
	C544.096375,163.601288 542.293152,162.203522 539.836670,160.299316 
	C538.760864,160.997955 537.056274,162.104996 535.349792,163.213242 
	C539.284485,169.294937 538.749878,170.254669 531.502563,171.310623 
	C530.956604,171.390182 530.547546,172.408844 529.889404,173.494934 
	C529.703918,173.998917 529.223816,174.072952 528.988159,174.164124 
	C528.507263,174.481888 528.261902,174.708481 527.812866,175.093292 
	C527.438354,175.271378 527.267578,175.291245 527.096741,175.311127 
	C526.006958,172.663101 524.905762,170.019699 523.831604,167.365326 
	C523.186707,165.771606 522.583984,164.160812 522.123840,161.884796 
	C527.461243,157.618256 532.200500,153.698608 533.507629,146.340469 
	C530.284851,148.227997 527.645264,149.773987 525.005615,151.319977 
	C526.040833,147.158020 523.553772,144.414047 521.219604,140.994507 
	C526.682007,138.456589 529.295288,134.678253 529.520752,128.999207 
	C530.917053,128.328583 531.958496,127.661613 533.369568,126.780724 
	C538.051880,125.839676 542.364624,125.112556 547.663391,124.219200 
	C541.119263,116.649300 535.470947,110.115662 529.724487,103.468430 
	C522.245056,108.998550 520.333496,116.253151 519.155579,123.981613 
	C522.182922,124.723824 524.689758,125.338432 527.196655,125.953033 
	C527.087524,126.526138 526.978455,127.099236 526.869385,127.672340 
	C525.623657,127.514107 524.211975,127.678177 523.163025,127.137886 
	C519.871155,125.442284 517.039490,125.511459 515.034302,128.892960 
	C512.849487,132.577499 509.152588,136.113174 513.047241,140.847366 
	C512.115723,142.065857 511.184235,143.284332 510.252716,144.502838 
	C508.641663,143.232880 507.030609,141.962921 505.419586,140.692963 
	C505.671112,140.129013 505.922638,139.565048 506.174164,139.001083 
	C504.401276,139.001083 502.628418,139.001083 500.435364,138.613159 
	C500.657867,134.883453 501.300507,131.541672 502.055298,127.616661 
	C478.560791,139.896942 454.617859,141.771347 429.320282,139.566589 
	C430.615540,142.117401 431.342316,143.548737 432.069122,144.980072 
	C425.564087,147.464844 420.357849,142.024521 413.717987,141.654984 
	C412.683533,139.203888 412.583984,136.938293 411.602509,135.159302 
	C409.660858,131.640045 407.231628,128.389801 405.016663,124.607796 
	C405.026093,122.784637 405.022766,121.382027 405.019440,119.979424 
	C405.019440,119.979424 404.995911,119.997902 405.335724,120.024284 
	C406.812836,119.360374 407.950134,118.670074 409.087463,117.979797 
z"/>
<path fill="#060612" opacity="1.000000" stroke="none" 
	d="
M571.026611,101.077408 
	C567.858704,100.152664 566.571838,97.770531 566.057251,94.369408 
	C568.375122,91.477524 570.878113,89.063316 573.108459,86.419083 
	C578.275757,80.292755 583.687195,80.743591 588.780884,86.621750 
	C596.082581,95.047958 596.070251,104.843307 595.288574,114.826286 
	C595.028748,118.144104 595.745544,119.993340 598.807556,120.743256 
	C602.634277,121.680458 606.495789,122.954506 610.376099,123.086426 
	C616.780212,123.304146 623.210693,122.697266 629.631775,122.493294 
	C631.789490,122.424751 633.990906,122.272034 636.106323,122.593086 
	C643.894531,123.775101 646.071289,127.586906 642.645020,134.877716 
	C640.906616,138.576797 638.252441,141.885284 635.767334,145.185852 
	C629.790833,153.123230 623.669739,160.951721 616.882935,168.908966 
	C610.357056,169.638367 611.821228,174.485092 610.958374,177.986023 
	C609.581482,180.220169 608.204651,182.454315 606.194214,184.889832 
	C600.870667,185.081100 596.534668,191.665024 591.648926,185.500183 
	C596.176819,177.903290 600.588440,170.650650 605.113464,163.211624 
	C598.462219,162.324020 592.386475,161.523819 586.313843,160.700623 
	C573.624878,158.980560 561.962830,154.425537 551.023315,147.884460 
	C551.568115,144.908737 551.324646,142.534348 549.309570,139.661285 
	C547.541077,137.139694 548.550903,133.224030 553.362610,132.300323 
	C559.166260,135.375015 564.316772,138.329330 569.611450,140.997482 
	C580.396301,146.432251 591.858154,149.189423 604.281006,149.378784 
	C608.210938,149.781784 612.339661,153.184357 615.352051,147.962601 
	C613.401611,146.868271 611.721436,145.925583 610.179932,144.613876 
	C611.545532,141.944611 612.772522,139.644363 614.445251,136.508438 
	C595.565674,136.703461 578.892029,130.660278 562.985779,122.052841 
	C564.676270,119.529655 566.366760,117.006477 568.445312,114.038536 
	C577.312134,113.102638 580.300476,106.872353 582.858765,99.814346 
	C580.770447,94.162979 579.851624,93.964020 575.792542,97.610519 
	C574.338928,98.916397 572.622864,99.930267 571.026611,101.077408 
z"/>
<path fill="#090817" opacity="1.000000" stroke="none" 
	d="
M708.956543,379.487915 
	C707.043579,382.712311 705.003052,385.632874 702.923706,388.933105 
	C696.299072,384.329102 689.597107,379.490540 683.150146,374.333252 
	C666.687439,361.163879 649.217102,349.524536 631.042847,338.854919 
	C612.868042,328.184998 594.615356,317.651062 574.941650,310.005524 
	C568.267029,307.411621 560.922180,306.542267 553.464355,304.997253 
	C550.877075,298.948242 553.050720,293.944916 556.825806,289.071014 
	C558.442017,286.984314 558.958252,284.070801 560.143127,281.614380 
	C560.752563,280.350952 561.732605,279.266235 562.917480,278.004028 
	C563.670044,282.413513 564.050293,286.919708 564.441345,291.555023 
	C616.863708,312.721832 665.429504,341.674896 708.956543,379.487915 
z"/>
<path fill="#090817" opacity="1.000000" stroke="none" 
	d="
M591.532654,185.844437 
	C596.534668,191.665024 600.870667,185.081100 605.956238,185.110077 
	C601.484253,194.136856 596.364746,203.019485 591.808167,212.182022 
	C584.939270,225.994232 578.476013,240.007919 571.806641,253.919815 
	C570.878357,255.856186 569.758484,257.700684 568.521240,259.849274 
	C565.775146,260.326477 563.236511,260.562805 560.694275,260.750458 
	C559.003052,260.875244 557.306702,260.930573 555.268066,260.629517 
	C565.768555,234.774597 576.872070,209.434357 591.532654,185.844437 
z"/>
<path fill="#060612" opacity="1.000000" stroke="none" 
	d="
M564.317627,85.741898 
	C563.038452,85.449471 561.719055,85.039772 560.786804,84.200241 
	C558.322327,81.980988 556.194275,79.431946 552.194885,80.455040 
	C551.425659,80.651817 550.204163,79.080391 549.029114,78.007301 
	C558.576599,71.114334 563.020203,73.320518 564.317627,85.741898 
z"/>
<path fill="#3D2009" opacity="1.000000" stroke="none" 
	d="
M490.244812,89.970062 
	C490.866974,90.896667 491.661163,92.633430 491.409241,92.801414 
	C489.145477,94.310913 486.697937,95.544815 483.914734,96.792496 
	C485.660614,94.501122 487.796173,92.276901 490.244812,89.970062 
z"/>
<path fill="#090817" opacity="1.000000" stroke="none" 
	d="
M611.261353,177.840408 
	C611.821228,174.485092 610.357056,169.638367 616.550659,168.987228 
	C615.149780,171.885376 613.356995,174.790085 611.261353,177.840408 
z"/>
<path fill="#3D2009" opacity="1.000000" stroke="none" 
	d="
M472.615601,103.436981 
	C472.480194,104.609383 471.949127,105.774559 471.418060,106.939735 
	C470.895874,106.560768 470.373657,106.181793 469.851471,105.802826 
	C469.290741,104.731201 468.730042,103.659576 468.016724,101.960175 
	C468.121033,100.257568 468.377991,99.182747 468.634949,98.107925 
	C469.829956,99.881866 471.024963,101.655807 472.615601,103.436981 
z"/>
<path fill="#0D0B14" opacity="1.000000" stroke="none" 
	d="
M468.663635,97.821617 
	C468.377991,99.182747 468.121033,100.257568 467.839539,101.674988 
	C463.236450,99.504623 463.197571,98.953377 467.736084,96.033623 
	C468.280701,96.496063 468.486511,97.015686 468.663635,97.821617 
z"/>
<path fill="#3D2009" opacity="1.000000" stroke="none" 
	d="
M480.780426,98.309250 
	C480.746704,99.195694 480.393341,100.158051 479.932312,101.401558 
	C478.793518,101.801537 477.762360,101.920357 476.339935,102.009666 
	C477.452698,100.781822 478.956726,99.583488 480.780426,98.309250 
z"/>
<path fill="#060612" opacity="1.000000" stroke="none" 
	d="
M516.616882,623.006042 
	C517.697449,624.249756 518.552246,626.198120 519.893677,626.627991 
	C533.006653,630.830811 546.353271,634.345032 559.340027,638.892822 
	C585.917358,648.199646 613.392456,655.453979 637.040039,671.755432 
	C647.461060,678.939026 656.291870,687.525452 661.441956,699.259583 
	C669.324158,717.218811 664.898132,739.370361 650.987610,753.111206 
	C648.991394,755.083191 647.080933,757.141846 644.671204,759.580444 
	C615.968140,782.936462 583.359192,795.661560 547.719177,801.367737 
	C546.226013,801.606750 544.882996,802.783691 543.469971,803.523621 
	C537.258850,804.205383 531.047791,804.887146 524.713867,805.582397 
	C527.880127,821.475647 530.927246,836.770874 534.039795,852.471863 
	C534.105286,852.877686 534.141663,852.830017 534.141663,852.830017 
	C533.611511,851.880371 533.081360,850.930725 532.541809,849.964294 
	C531.789917,852.603516 531.027466,855.279785 530.265015,857.955994 
	C527.124329,849.474487 520.555359,844.526611 515.287964,837.917297 
	C513.497620,833.101624 511.085114,836.554199 508.990143,836.687500 
	C504.358582,841.820068 499.557709,846.816345 495.230530,852.193848 
	C494.304352,853.344788 495.095428,855.877441 495.095428,858.031555 
	C491.714081,858.931152 490.020386,857.859253 490.216431,854.223389 
	C490.797333,843.450745 491.391357,832.678894 491.952881,821.905212 
	C492.073944,819.582825 492.080078,817.254456 492.157227,814.097656 
	C493.341888,808.825256 491.520203,807.049622 487.045654,806.696777 
	C481.123566,806.229919 475.240173,805.239319 469.350372,804.401978 
	C452.119843,801.952271 435.044220,798.834656 418.899353,791.993408 
	C414.348419,790.065063 409.898468,787.898438 405.164673,785.573730 
	C396.315521,780.142151 387.703888,774.978027 379.092255,769.813904 
	C371.723206,762.510132 366.054626,754.175415 362.168793,744.444153 
	C358.123718,734.314148 359.446198,724.634033 365.678436,716.622253 
	C381.606934,696.145691 403.132568,687.354248 428.986389,689.337036 
	C435.704926,689.852295 441.469696,692.714966 446.193298,697.509949 
	C447.330261,698.664001 448.384766,700.088501 448.944275,701.587585 
	C450.828796,706.637085 449.297424,708.501526 444.005188,708.725586 
	C435.597565,709.081604 427.043640,708.945740 418.862976,710.578369 
	C414.010834,711.546631 408.977478,714.729431 405.407074,718.298584 
	C399.375214,724.328308 400.346405,731.387207 406.332520,737.666199 
	C413.741882,745.437988 423.072601,750.052307 432.640350,754.347107 
	C436.581818,756.116455 440.548462,757.829712 444.684570,760.156738 
	C443.478882,762.556335 442.092316,764.367737 440.345093,766.146240 
	C424.368011,760.447449 410.307526,752.176270 397.835815,740.703857 
	C393.008209,732.875122 389.675262,725.265442 392.422485,715.934570 
	C395.147308,706.679626 402.961151,702.574219 410.930023,696.967773 
	C408.612213,696.967773 407.622223,696.916138 406.640869,696.985901 
	C405.985077,697.032593 405.258636,697.104492 404.704742,697.415833 
	C394.033691,703.415588 382.203369,707.931763 375.390076,719.061096 
	C370.824615,726.518555 368.757904,734.462036 373.485291,742.646973 
	C375.693756,746.470520 378.174866,750.297913 381.244141,753.424927 
	C385.734894,758.000305 390.865662,761.947632 395.971863,766.408447 
	C426.832275,785.191772 460.682617,792.093201 495.822144,794.230347 
	C502.573151,794.640991 502.589478,794.372559 502.657410,801.345459 
	C502.365387,806.155884 501.971161,810.616638 502.260101,815.032715 
	C502.381531,816.888611 503.905457,820.151123 504.864471,820.177979 
	C507.967102,820.264832 509.907928,818.143799 509.648376,814.689026 
	C509.303650,810.100708 508.940735,805.513855 508.655640,800.491699 
	C509.283173,797.646973 507.437103,794.233032 512.184814,793.764526 
	C538.443298,791.172852 564.405884,787.415100 589.177856,777.416504 
	C604.626587,771.180969 619.519836,764.321838 632.355713,752.986328 
	C637.345398,748.010742 641.951782,743.068115 646.675659,738.240601 
	C657.056763,727.631775 655.479797,707.069031 650.153870,696.981812 
	C644.784485,686.812134 635.790100,680.731506 626.415894,674.396118 
	C614.184937,668.564087 602.489380,662.248169 590.166992,657.590576 
	C573.378296,651.244812 556.149658,646.044312 539.036438,640.582336 
	C527.347839,636.851746 515.534180,633.513000 503.792786,629.676392 
	C503.253906,628.760803 502.698608,628.167786 502.171356,627.214172 
	C502.181610,625.889160 502.163849,624.924683 502.461914,623.807495 
	C507.228577,619.976807 511.951996,622.116211 516.616882,623.006042 
z"/>
<path fill="#080812" opacity="1.000000" stroke="none" 
	d="
M476.089905,768.485229 
	C478.705719,768.941650 481.362305,769.238098 483.927765,769.891968 
	C487.775970,770.872864 489.670380,769.797974 489.406189,765.585876 
	C488.730377,754.811829 488.152466,744.031677 487.501190,733.256104 
	C486.078461,709.716003 484.580750,686.180298 483.245605,662.635315 
	C482.986450,658.064758 481.642242,655.520264 476.687286,653.863708 
	C454.645020,646.494385 432.687439,638.824402 410.966156,630.561401 
	C399.226868,626.095703 387.865479,620.229248 379.029266,611.052490 
	C373.705780,605.523865 368.416656,599.250977 365.448303,592.313049 
	C359.178467,577.658447 364.404816,564.494690 374.516418,553.382996 
	C384.467590,542.447571 396.730225,534.501038 410.353027,528.691711 
	C419.213806,524.913025 427.865875,520.563721 436.924591,517.353760 
	C445.670593,514.254639 454.740295,511.927032 463.820984,509.972076 
	C468.641693,508.934265 469.671570,506.561829 469.155029,502.319397 
	C468.132202,493.919128 467.008545,485.519806 466.402039,477.085876 
	C466.165588,473.797791 467.211456,470.417542 467.673279,467.079254 
	C468.182953,466.966461 468.692627,466.853668 469.202301,466.740875 
	C474.705048,472.823822 480.207794,478.906769 486.623657,485.999084 
	C488.587646,483.599823 490.449768,481.552429 492.050995,479.318115 
	C494.745575,475.558228 497.092682,471.535553 499.959412,467.919464 
	C501.161987,466.402527 503.317322,465.640839 505.671631,464.130188 
	C506.713043,477.332825 507.673706,489.512207 508.694336,502.451233 
	C542.444275,498.998596 573.212769,507.414062 602.701904,524.262939 
	C602.701904,521.899231 602.784973,520.155518 602.686951,518.422058 
	C602.334106,512.183960 609.899292,505.356262 616.025574,506.556427 
	C617.069946,506.761078 617.975098,507.676605 618.735168,508.654846 
	C612.496826,510.769623 615.173401,515.609253 614.464478,519.243042 
	C612.882324,520.081909 611.113831,520.798767 610.551819,522.055359 
	C608.632568,526.346008 607.137695,530.826538 605.177002,536.043213 
	C572.412964,511.509583 536.263733,505.204681 496.414215,510.860809 
	C496.414215,502.419952 496.414215,494.210938 496.414215,486.001923 
	C495.899200,485.958221 495.384216,485.914520 494.869202,485.870819 
	C492.343964,492.860229 489.509247,499.758148 487.406830,506.872528 
	C486.096680,511.305908 484.016479,513.608032 479.250458,513.943481 
	C474.296875,514.292175 469.140961,514.644165 464.516663,516.261658 
	C449.620911,521.472046 434.909760,527.215393 420.182861,532.896912 
	C418.234894,533.648376 416.608002,535.232117 414.506592,536.506897 
	C413.450684,537.049194 412.720581,537.515015 411.667664,538.026978 
	C410.180328,538.620056 409.015778,539.166992 407.501556,539.786316 
	C397.906189,545.667175 387.930695,550.528564 381.084137,559.496277 
	C372.475922,570.771362 371.782990,580.568848 378.043030,590.291626 
	C384.198273,599.851624 392.850037,606.259277 402.495880,611.770020 
	C422.904877,623.429749 445.416534,629.659851 467.426819,637.186157 
	C470.871826,638.364197 474.470978,639.091431 478.369049,640.142273 
	C485.117767,641.854675 491.496307,643.451965 497.957825,645.458008 
	C498.283173,647.234985 498.525543,648.603088 498.622375,650.406128 
	C498.268890,659.103455 497.944733,667.365417 497.908081,675.628540 
	C497.892700,679.098694 498.693481,682.567078 498.767761,686.043884 
	C499.186829,705.661621 499.312897,725.287476 499.918457,744.898743 
	C500.255707,755.819519 501.330139,766.717590 501.539795,777.580200 
	C493.008301,776.999390 485.009369,776.464233 477.003265,775.517212 
	C476.694000,772.898682 476.391968,770.691956 476.089905,768.485229 
z"/>
<path fill="#04050D" opacity="1.000000" stroke="none" 
	d="
M614.831055,519.368286 
	C615.173401,515.609253 612.496826,510.769623 618.892151,508.976318 
	C621.283325,511.507629 624.948792,514.035889 625.067810,516.721252 
	C625.869202,534.805298 626.213379,552.925293 626.048706,571.027710 
	C625.992249,577.240967 620.403503,582.288635 614.228333,583.534241 
	C610.085754,584.369812 606.978516,583.305298 603.731262,579.870483 
	C594.768738,570.390320 585.630920,560.920837 575.506592,552.756348 
	C570.030579,548.340393 562.520996,546.267761 555.710510,543.722168 
	C541.502686,538.411743 526.761902,535.485779 511.561737,535.083801 
	C511.098785,535.071472 510.632294,535.192200 509.802826,535.296936 
	C510.264587,541.627441 510.692383,547.855286 511.177643,554.078613 
	C512.685730,573.420227 514.215698,592.760193 515.351318,612.582886 
	C511.510834,616.079041 513.092041,618.191772 516.211914,620.029114 
	C516.385132,620.769287 516.558350,621.509521 516.674255,622.627869 
	C511.951996,622.116211 507.228577,619.976807 502.222321,623.800537 
	C501.666870,623.946350 501.190369,623.900085 501.138733,623.474487 
	C501.190186,619.730957 501.525177,616.401001 501.354980,613.097107 
	C500.722198,600.815552 499.964172,588.540039 499.175110,576.267212 
	C498.397461,564.171509 497.525238,552.081848 496.732117,539.524109 
	C496.784943,535.067871 496.895935,531.074341 496.781799,527.087280 
	C496.705780,524.432007 497.499359,522.978760 500.429016,523.168762 
	C513.969788,524.046753 527.677307,523.835571 541.022583,525.936523 
	C567.898987,530.167542 590.508179,542.511719 607.232910,564.618713 
	C608.681885,566.534058 611.232910,567.615662 613.830933,569.487183 
	C614.329224,567.348145 614.798035,566.265442 614.801331,565.181274 
	C614.848328,549.910400 614.832031,534.639343 614.831055,519.368286 
z"/>
<path fill="#CF9401" opacity="1.000000" stroke="none" 
	d="
M931.051270,860.619141 
	C937.422791,860.221436 943.714783,860.250366 950.006592,860.218811 
	C966.789795,860.134644 983.573730,859.914185 1000.354919,860.051270 
	C1002.701172,860.070435 1005.033386,861.795105 1007.372070,862.730286 
	C1006.445251,865.002075 1006.161682,868.323303 1004.475769,869.356628 
	C998.466003,873.040100 992.296509,877.277283 985.607605,878.869873 
	C971.500854,882.228516 957.027649,884.048523 942.324219,886.525635 
	C939.529541,885.506287 937.104248,884.486145 934.705383,883.407043 
	C933.182556,882.721985 931.699219,881.949036 930.198120,881.215454 
	C931.204407,879.698303 932.210754,878.181152 933.821411,875.753052 
	C932.659912,874.612488 931.229065,872.640564 929.313538,871.445251 
	C925.400574,869.003479 925.054565,866.380554 928.636108,863.342773 
	C929.471130,862.634460 930.196106,861.796509 931.051270,860.619141 
z"/>
<path fill="#BD8301" opacity="1.000000" stroke="none" 
	d="
M405.402222,785.841064 
	C409.898468,787.898438 414.348419,790.065063 418.899353,791.993408 
	C435.044220,798.834656 452.119843,801.952271 469.350372,804.401978 
	C475.240173,805.239319 481.123566,806.229919 487.045654,806.696777 
	C491.520203,807.049622 493.341888,808.825256 492.077576,813.635681 
	C472.983093,810.333984 453.836853,807.285400 435.042725,802.770874 
	C422.763123,799.821228 410.668304,795.478516 400.559601,787.279480 
	C402.317078,786.593201 403.859650,786.217163 405.402222,785.841064 
z"/>
<path fill="#9E6503" opacity="1.000000" stroke="none" 
	d="
M543.914551,803.650818 
	C544.882996,802.783691 546.226013,801.606750 547.719177,801.367737 
	C583.359192,795.661560 615.968140,782.936462 644.531799,759.878479 
	C641.133118,764.046326 638.014282,769.133667 633.578857,772.471008 
	C621.949341,781.221252 609.405029,788.421753 595.037415,792.089172 
	C589.348877,793.541138 584.003662,796.298157 578.430603,798.257568 
	C575.168945,799.404358 571.777893,800.195007 568.424072,801.065063 
	C563.685913,802.294373 558.981567,803.834717 554.160278,804.498657 
	C550.986511,804.935730 547.632446,804.063782 543.914551,803.650818 
z"/>
<path fill="#121619" opacity="1.000000" stroke="none" 
	d="
M475.796143,768.313843 
	C476.391968,770.691956 476.694000,772.898682 476.591583,775.527466 
	C468.024261,774.034241 459.825256,772.257690 451.714661,770.142029 
	C447.956177,769.161560 444.370026,767.520630 440.705750,766.179138 
	C442.092316,764.367737 443.478882,762.556335 444.924255,760.404297 
	C455.156189,762.756531 465.329285,765.449463 475.796143,768.313843 
z"/>
<path fill="#B47F01" opacity="1.000000" stroke="none" 
	d="
M405.164673,785.573669 
	C403.859650,786.217163 402.317078,786.593201 400.380005,786.989868 
	C393.225525,782.320129 386.445404,777.658020 379.745453,772.883362 
	C379.233246,772.518433 379.288208,771.357666 379.085876,770.190308 
	C387.703888,774.978027 396.315521,780.142151 405.164673,785.573669 
z"/>
<path fill="#9E6503" opacity="1.000000" stroke="none" 
	d="
M508.997742,837.074524 
	C511.085114,836.554199 513.497620,833.101624 515.105774,837.637451 
	C512.992859,838.154541 510.405548,844.510254 508.997742,837.074524 
z"/>
<path fill="#060612" opacity="1.000000" stroke="none" 
	d="
M516.340149,619.642334 
	C513.092041,618.191772 511.510834,616.079041 515.311279,613.032349 
	C515.927551,615.084900 516.197998,617.170227 516.340149,619.642334 
z"/>
<path fill="#060612" opacity="1.000000" stroke="none" 
	d="
M534.080444,852.894409 
	C534.223145,853.187866 534.408569,853.456177 534.543457,853.747864 
	C534.572021,853.809631 534.415466,853.956970 534.344238,854.064880 
	C534.269592,853.803528 534.194946,853.542114 534.130981,853.055420 
	C534.141663,852.830017 534.105286,852.877686 534.080444,852.894409 
z"/>
<path fill="#CA9301" opacity="1.000000" stroke="none" 
	d="
M526.875244,175.553467 
	C527.267578,175.291245 527.438354,175.271378 528.081909,175.065186 
	C528.777771,174.610245 529.000793,174.341614 529.223816,174.072968 
	C529.223816,174.072952 529.703918,173.998917 529.876465,173.828018 
	C528.767639,181.660706 528.097412,189.821762 526.083923,197.636780 
	C521.113892,216.927643 515.365112,236.016785 510.272522,255.277725 
	C508.339050,262.590302 502.713654,265.029877 496.668884,266.893097 
	C490.583466,268.768890 486.304504,271.473541 482.708588,277.501709 
	C480.060272,281.941345 479.027069,286.081909 478.427551,291.327515 
	C472.903107,288.359924 467.820435,285.704620 462.843048,282.864868 
	C462.190887,282.492798 461.881378,281.204071 461.745728,280.290497 
	C459.843964,267.481873 457.805664,254.755447 452.607239,242.701080 
	C446.302765,228.081955 440.439301,213.272629 434.231171,198.171371 
	C465.790710,196.793976 498.076813,193.758759 526.875244,175.553467 
z"/>
<path fill="#CA9201" opacity="1.000000" stroke="none" 
	d="
M591.648926,185.500183 
	C576.872070,209.434357 565.768555,234.774597 554.894409,260.617859 
	C553.821106,261.707001 552.563843,263.226501 551.763916,263.015106 
	C534.236450,258.383698 534.194031,258.351837 520.479553,266.118378 
	C529.615662,232.823822 541.182312,200.186905 545.883667,165.405243 
	C547.365784,159.364624 548.832031,153.730225 550.660828,147.990143 
	C561.962830,154.425537 573.624878,158.980560 586.313843,160.700623 
	C592.386475,161.523819 598.462219,162.324020 605.113464,163.211624 
	C600.588440,170.650650 596.176819,177.903290 591.648926,185.500183 
z"/>
<path fill="#C99201" opacity="1.000000" stroke="none" 
	d="
M381.463928,291.731201 
	C375.480316,284.369629 370.149048,276.757233 364.127655,269.736664 
	C352.885803,256.629364 341.047241,244.086945 326.025208,235.083496 
	C324.943207,234.435013 324.108978,233.373138 322.674561,232.059265 
	C329.351349,229.843491 335.477753,227.810379 342.238647,225.466232 
	C354.915680,220.113983 366.958160,215.072769 379.000610,210.031540 
	C381.397675,208.371155 383.794739,206.710800 387.135223,204.396957 
	C388.519867,207.827087 390.337494,211.082993 391.160583,214.573410 
	C396.100006,235.519836 400.808258,256.520752 405.600891,277.501831 
	C406.439667,281.173798 407.311340,284.838196 408.346191,289.269806 
	C398.576141,285.853607 389.861389,286.089508 381.463928,291.731201 
z"/>
<path fill="#C89101" opacity="1.000000" stroke="none" 
	d="
M437.520203,239.647430 
	C440.234619,249.096619 442.929474,258.150391 445.295135,267.289368 
	C446.322632,271.258789 446.673035,275.403473 447.149323,278.346222 
	C437.963684,282.438812 429.506317,286.206940 421.076813,289.962616 
	C414.622162,258.902313 407.954956,226.819260 401.225372,194.435822 
	C411.619629,192.889435 417.090271,198.682617 420.942474,205.786453 
	C426.865997,216.709885 431.935333,228.096481 437.520203,239.647430 
z"/>
<path fill="#939193" opacity="1.000000" stroke="none" 
	d="
M479.002655,311.562195 
	C485.575378,310.137207 488.034790,306.863739 488.766846,299.270599 
	C489.146667,295.331177 489.347351,291.153351 490.843536,287.593719 
	C493.189301,282.012817 499.686890,274.028290 506.502594,275.807343 
	C508.421692,276.308258 510.503326,276.569855 512.187927,277.515564 
	C517.660889,280.588104 522.284729,279.254852 526.837097,275.539337 
	C533.689148,269.947021 545.103821,270.957489 551.049011,277.507446 
	C556.183228,283.164001 554.045532,291.987213 546.918701,295.791840 
	C539.065735,299.984070 530.726318,301.200256 521.986694,301.017120 
	C519.921814,300.973846 517.748047,301.532715 515.779663,302.244232 
	C504.742706,306.234192 493.759888,310.373779 482.735382,314.398773 
	C481.837677,314.726532 480.766205,314.578491 479.382507,314.301117 
	C478.993927,313.154510 478.998291,312.358337 479.002655,311.562195 
z"/>
<path fill="#C89101" opacity="1.000000" stroke="none" 
	d="
M363.347900,179.161774 
	C359.602661,180.632202 356.146606,181.947189 352.829590,183.549942 
	C347.749664,186.004532 342.764099,188.654541 337.741364,191.227264 
	C334.873322,192.696274 332.594299,192.322586 330.250610,189.813538 
	C324.277557,183.419159 318.118530,177.191711 311.864899,171.070175 
	C309.924103,169.170364 307.440826,167.824692 304.213196,165.514923 
	C309.928986,160.364243 315.660370,155.771194 320.675629,150.497162 
	C324.608978,146.360886 327.656372,141.382111 331.561707,136.852707 
	C336.557770,139.056015 341.089447,141.184265 345.621124,143.312500 
	C345.596191,148.272141 342.388275,153.394424 346.728577,158.121201 
	C352.318329,164.208649 357.759552,170.433655 363.182892,176.670624 
	C363.663788,177.223679 363.541504,178.301270 363.347900,179.161774 
z"/>
<path fill="#CA9001" opacity="1.000000" stroke="none" 
	d="
M432.366516,145.195007 
	C431.342316,143.548737 430.615540,142.117401 429.320282,139.566589 
	C454.617859,141.771347 478.560791,139.896942 502.055298,127.616661 
	C501.300507,131.541672 500.657867,134.883453 500.019897,138.613190 
	C498.715424,142.049332 497.345490,145.073212 496.113678,148.152359 
	C494.798523,151.439972 492.755035,153.459518 489.050110,154.279724 
	C471.916534,158.072845 454.842010,162.132401 437.738739,166.063690 
	C436.990295,166.235718 436.167816,166.085693 436.319183,166.085693 
	C435.042358,158.863297 433.853119,152.136627 432.366516,145.195007 
z"/>
<path fill="#959596" opacity="1.000000" stroke="none" 
	d="
M478.641785,311.434601 
	C478.998291,312.358337 478.993927,313.154510 478.990112,314.249512 
	C468.545135,321.924316 456.305908,322.191254 444.282196,323.271027 
	C439.156586,323.731323 434.005951,324.433319 428.891022,324.268921 
	C426.389404,324.188538 422.712219,323.024475 421.752533,321.200897 
	C420.202484,318.255341 418.842651,313.344360 420.273682,311.069733 
	C423.625763,305.741455 428.315643,301.063416 433.130432,296.891266 
	C440.497131,290.507812 449.255463,291.826630 457.741943,294.213226 
	C466.043518,296.547791 473.017853,300.736511 476.094208,309.530151 
	C476.358276,310.285034 477.530579,310.722229 478.641785,311.434601 
z"/>
<path fill="#BD8301" opacity="1.000000" stroke="none" 
	d="
M345.987549,143.306427 
	C341.089447,141.184265 336.557770,139.056015 331.811096,136.584259 
	C332.501556,134.143158 333.407043,132.045563 334.364014,129.828674 
	C355.995880,133.010559 373.226318,126.417175 385.700928,107.290222 
	C386.131500,110.240234 386.562103,113.190247 387.014893,116.569763 
	C384.504211,123.665413 383.976685,131.081879 378.332672,136.536835 
	C370.535126,144.073181 361.222534,145.001221 351.232788,143.943741 
	C349.602112,143.771118 347.980042,143.516876 345.987549,143.306427 
z"/>
<path fill="#BD8301" opacity="1.000000" stroke="none" 
	d="
M524.770508,151.547913 
	C527.645264,149.773987 530.284851,148.227997 533.507629,146.340469 
	C532.200500,153.698608 527.461243,157.618256 522.104126,161.486023 
	C509.863495,169.594971 497.143250,176.365585 482.864258,178.501999 
	C466.329987,180.975861 449.594635,182.140320 432.925842,183.643082 
	C430.471191,183.864380 427.902100,182.816589 425.385986,182.355988 
	C425.345490,181.692551 425.304993,181.029129 425.264496,180.365692 
	C429.244415,179.646027 433.222961,178.918915 437.204437,178.208008 
	C454.122162,175.187256 471.071075,172.330124 487.949432,169.103592 
	C501.585205,166.496933 513.301392,159.585159 524.770508,151.547913 
z"/>
<path fill="#959596" opacity="1.000000" stroke="none" 
	d="
M409.169861,302.723816 
	C413.585358,307.042877 413.585358,307.042877 412.126862,310.559906 
	C414.170563,315.049744 416.021576,319.116302 418.328949,324.185455 
	C415.436005,324.185455 413.208862,324.183014 410.981720,324.185883 
	C402.334473,324.197052 393.685089,324.105072 385.041077,324.277924 
	C381.940613,324.339935 380.746033,323.251465 380.155334,320.175201 
	C378.336975,310.706024 379.926483,306.216156 387.572083,301.075195 
	C392.371826,297.847778 403.083313,298.554657 409.169861,302.723816 
z"/>
<path fill="#C78D01" opacity="1.000000" stroke="none" 
	d="
M395.798279,176.402130 
	C384.239716,175.301102 377.550934,167.972076 371.294037,159.306885 
	C383.703888,161.041016 395.474121,159.595139 407.163300,156.212280 
	C410.520081,155.240829 414.434296,155.516312 417.943787,156.106674 
	C419.236694,156.324188 421.005920,159.094864 421.012054,160.706863 
	C421.053101,171.508362 414.442749,177.660828 403.619263,177.259933 
	C401.146484,177.168350 398.685303,176.763016 395.798279,176.402130 
z"/>
<path fill="#050612" opacity="1.000000" stroke="none" 
	d="
M379.057556,209.680176 
	C366.958160,215.072769 354.915680,220.113983 342.505981,225.226532 
	C341.550751,223.129105 340.962708,220.960327 340.272400,218.414444 
	C334.837677,225.391495 328.867798,219.345917 323.351318,219.058563 
	C342.219421,210.268723 360.927277,202.049820 379.635132,193.830902 
	C383.584442,197.938477 383.430542,202.519669 379.057556,209.680176 
z"/>
<path fill="#BD8301" opacity="1.000000" stroke="none" 
	d="
M513.388672,140.945435 
	C509.152588,136.113174 512.849487,132.577499 515.034302,128.892960 
	C517.039490,125.511459 519.871155,125.442284 523.163025,127.137886 
	C524.211975,127.678177 525.623657,127.514107 526.869385,127.672340 
	C526.978455,127.099236 527.087524,126.526138 527.196655,125.953033 
	C524.689758,125.338432 522.182922,124.723824 519.155579,123.981613 
	C520.333496,116.253151 522.245056,108.998550 529.724487,103.468430 
	C535.470947,110.115662 541.119263,116.649300 547.663391,124.219200 
	C542.364624,125.112556 538.051880,125.839676 533.031982,126.797806 
	C531.271851,127.686836 530.218872,128.344864 529.165955,129.002869 
	C529.295288,134.678253 526.682007,138.456589 521.153564,140.637482 
	C518.564209,140.972672 516.147156,141.008087 513.388672,140.945435 
z"/>
<path fill="#B47F01" opacity="1.000000" stroke="none" 
	d="
M379.825684,193.511078 
	C360.927277,202.049820 342.219421,210.268723 323.253235,218.714310 
	C319.999359,220.032822 317.003876,221.124680 313.389282,221.976440 
	C312.139496,217.461090 314.836884,215.595428 318.075531,213.736740 
	C319.717072,212.794617 320.746460,210.785873 322.052612,209.259354 
	C337.039185,203.235413 352.033569,197.230774 366.998810,191.154343 
	C368.328827,190.614304 369.469147,189.607086 370.885498,188.523865 
	C372.356110,187.925781 373.642120,187.634033 374.920837,187.313248 
	C379.827972,186.082169 381.449432,187.949661 379.825684,193.511078 
z"/>
<path fill="#BD8301" opacity="1.000000" stroke="none" 
	d="
M405.003967,125.028366 
	C407.231628,128.389801 409.660858,131.640045 411.602509,135.159302 
	C412.583984,136.938293 412.683533,139.203888 413.349335,141.631683 
	C406.939270,143.720505 400.361725,145.427078 392.617920,147.436264 
	C396.077728,140.594330 398.866364,135.079712 401.921417,129.116364 
	C403.126556,127.454544 404.065247,126.241463 405.003967,125.028366 
z"/>
<path fill="#3D2009" opacity="1.000000" stroke="none" 
	d="
M405.016693,124.607803 
	C404.065247,126.241463 403.126556,127.454544 401.853027,128.770294 
	C399.943451,126.392395 398.372925,123.911972 401.908508,121.301270 
	C402.852478,120.704247 403.622894,120.384102 404.706360,120.021690 
	C405.022766,121.382027 405.026093,122.784637 405.016693,124.607803 
z"/>
<path fill="#B47F01" opacity="1.000000" stroke="none" 
	d="
M314.518188,137.474533 
	C306.207764,146.521484 296.109711,155.126648 286.207458,152.236542 
	C292.496216,146.317581 299.227692,141.203094 304.362885,134.807007 
	C309.551514,128.344452 313.158234,120.611832 318.089722,113.690880 
	C320.495148,122.174828 319.760651,129.996964 314.518188,137.474533 
z"/>
<path fill="#B47F01" opacity="1.000000" stroke="none" 
	d="
M460.347168,118.639923 
	C460.082642,120.149391 459.633820,121.300148 458.540710,124.102684 
	C453.391327,113.816154 446.273743,108.091812 435.598022,107.081818 
	C442.866699,103.201401 450.474121,99.489235 458.833282,95.410248 
	C459.536804,102.093704 462.376434,108.013725 459.345032,114.422981 
	C458.897797,115.368591 459.855255,116.978607 460.347168,118.639923 
z"/>
<path fill="#9E6503" opacity="1.000000" stroke="none" 
	d="
M490.857483,116.346146 
	C485.875244,122.379837 478.914490,123.733025 471.700714,124.082993 
	C470.208008,124.155411 468.636169,122.596451 467.366547,121.273186 
	C469.110352,119.597755 470.588379,118.438515 472.066437,117.279266 
	C473.474609,116.909676 474.882782,116.540085 477.108643,116.093475 
	C482.236725,116.126366 486.547089,116.236259 490.857483,116.346146 
z"/>
<path fill="#9E6503" opacity="1.000000" stroke="none" 
	d="
M321.693695,209.249573 
	C320.746460,210.785873 319.717072,212.794617 318.075531,213.736740 
	C314.836884,215.595428 312.139496,217.461090 313.022949,221.988663 
	C308.378021,225.363510 304.273895,222.487625 298.730682,220.200211 
	C306.895569,216.241180 314.115173,212.740494 321.693695,209.249573 
z"/>
<path fill="#0D0B14" opacity="1.000000" stroke="none" 
	d="
M490.893433,115.861725 
	C486.547089,116.236259 482.236725,116.126366 477.461609,115.996643 
	C475.641663,112.754967 475.845215,110.023346 479.696594,108.175926 
	C480.820190,108.005058 481.644287,108.003021 483.188171,108.146362 
	C486.261475,108.722633 488.615021,109.153534 490.968536,109.584435 
	C490.955475,111.515388 490.942444,113.446342 490.893433,115.861725 
z"/>
<path fill="#0D0B14" opacity="1.000000" stroke="none" 
	d="
M472.047394,116.868408 
	C470.588379,118.438515 469.110352,119.597755 467.343781,120.889328 
	C466.218384,120.443199 465.381470,119.864754 464.276550,119.139404 
	C464.075684,118.004036 463.859406,116.873558 464.268738,116.056541 
	C465.132874,114.331795 466.208557,111.503067 467.404297,111.393967 
	C470.336975,111.126373 472.221710,113.162567 472.047394,116.868408 
z"/>
<path fill="#3D2009" opacity="1.000000" stroke="none" 
	d="
M427.747559,108.847031 
	C422.923523,111.329002 417.823792,113.662262 412.346191,116.043869 
	C416.532257,112.361259 421.210938,108.870918 427.747559,108.847031 
z"/>
<path fill="#3D2009" opacity="1.000000" stroke="none" 
	d="
M408.731476,117.989922 
	C407.950134,118.670074 406.812836,119.360374 405.324036,120.033669 
	C406.106873,119.344467 407.241180,118.672264 408.731476,117.989922 
z"/>
<path fill="#CA9001" opacity="1.000000" stroke="none" 
	d="
M562.635925,122.053818 
	C578.892029,130.660278 595.565674,136.703461 614.445251,136.508438 
	C612.772522,139.644363 611.545532,141.944611 609.897461,144.683655 
	C607.637146,146.476547 605.798096,147.830612 603.958984,149.184677 
	C591.858154,149.189423 580.396301,146.432251 569.611450,140.997482 
	C564.316772,138.329330 559.166260,135.375015 553.703735,132.283081 
	C556.399963,128.695557 559.343018,125.375175 562.635925,122.053818 
z"/>
<path fill="#3D2009" opacity="1.000000" stroke="none" 
	d="
M570.882935,101.381111 
	C572.622864,99.930267 574.338928,98.916397 575.792542,97.610519 
	C579.851624,93.964020 580.770447,94.162979 582.508301,99.782913 
	C579.237549,101.904907 576.069397,103.384811 573.488220,105.561012 
	C571.075439,107.595222 569.285400,110.368118 567.221313,112.815903 
	C564.216248,112.981453 563.492065,111.813591 565.238647,109.322159 
	C567.039490,106.753456 568.903137,104.228760 570.882935,101.381111 
z"/>
<path fill="#9E6503" opacity="1.000000" stroke="none" 
	d="
M567.398254,112.929268 
	C569.285400,110.368118 571.075439,107.595222 573.488220,105.561012 
	C576.069397,103.384811 579.237549,101.904907 582.500000,100.152512 
	C580.300476,106.872353 577.312134,113.102638 568.471313,113.636314 
	C567.995789,113.412666 567.817688,113.200600 567.398254,112.929268 
z"/>
<path fill="#9E6503" opacity="1.000000" stroke="none" 
	d="
M491.311829,109.474327 
	C488.615021,109.153534 486.261475,108.722633 483.600159,108.149750 
	C484.396423,106.786880 485.301636,105.222847 486.657745,104.436813 
	C488.164612,103.563416 490.082581,103.399353 491.821564,102.926483 
	C491.766083,105.072395 491.710602,107.218307 491.311829,109.474327 
z"/>
<path fill="#060612" opacity="1.000000" stroke="none" 
	d="
M529.520752,128.999207 
	C530.218872,128.344864 531.271851,127.686836 532.662354,127.011734 
	C531.958496,127.661613 530.917053,128.328583 529.520752,128.999207 
z"/>
<path fill="#060612" opacity="1.000000" stroke="none" 
	d="
M528.988159,174.164139 
	C529.000793,174.341614 528.777771,174.610245 528.285645,174.906982 
	C528.261902,174.708481 528.507263,174.481888 528.988159,174.164139 
z"/>
<path fill="#9E6503" opacity="1.000000" stroke="none" 
	d="
M604.281006,149.378784 
	C605.798096,147.830612 607.637146,146.476547 609.758789,145.052689 
	C611.721436,145.925583 613.401611,146.868271 615.352051,147.962601 
	C612.339661,153.184357 608.210938,149.781784 604.281006,149.378784 
z"/>
<path fill="#03A40F" opacity="1.000000" stroke="none" 
	d="
M440.345093,766.146240 
	C444.370026,767.520630 447.956177,769.161560 451.714661,770.142029 
	C459.825256,772.257690 468.024261,774.034241 476.598785,775.939331 
	C485.009369,776.464233 493.008301,776.999390 501.821350,777.664429 
	C504.845917,777.799805 507.056335,777.805237 509.644653,777.737000 
	C518.087402,776.700867 526.202393,776.040771 534.206604,774.713196 
	C550.928223,771.939636 567.611572,768.690979 582.593628,760.248291 
	C596.751282,752.270325 611.036682,744.223694 617.771790,727.865173 
	C619.579834,729.002136 621.404663,729.791992 622.339539,731.180908 
	C623.955933,733.581970 625.139832,736.303345 626.289368,738.982971 
	C628.288025,743.642090 630.122437,748.371582 632.025757,753.071594 
	C619.519836,764.321838 604.626587,771.180969 589.177856,777.416504 
	C564.405884,787.415100 538.443298,791.172852 512.184814,793.764526 
	C507.437103,794.233032 509.283173,797.646973 508.252075,800.511658 
	C506.129395,800.970093 504.480286,800.973938 502.831177,800.977783 
	C502.589478,794.372559 502.573151,794.640991 495.822144,794.230347 
	C460.682617,792.093201 426.832275,785.191772 396.269012,766.132080 
	C396.724365,759.458496 397.128662,753.306885 397.538483,747.155640 
	C397.674713,745.110535 397.825012,743.066406 397.968872,741.021790 
	C410.307526,752.176270 424.368011,760.447449 440.345093,766.146240 
z"/>
<path fill="#02A810" opacity="1.000000" stroke="none" 
	d="
M501.190369,623.900085 
	C501.190369,623.900085 501.666870,623.946350 501.906464,623.953308 
	C502.163849,624.924683 502.181610,625.889160 502.174011,627.549072 
	C502.691223,628.829346 503.233795,629.414185 503.776398,629.999023 
	C515.534180,633.513000 527.347839,636.851746 539.036438,640.582336 
	C556.149658,646.044312 573.378296,651.244812 590.166992,657.590576 
	C602.489380,662.248169 614.184937,668.564087 626.001831,674.583923 
	C622.107605,676.069946 617.248291,676.082825 619.733337,682.447021 
	C620.039673,683.231812 618.652649,684.707458 617.997437,685.832153 
	C616.388123,688.594543 614.748047,691.338928 612.838440,694.567078 
	C612.080505,694.478760 610.303589,694.271790 608.323608,693.841309 
	C604.465149,690.506165 601.035706,687.069580 597.113159,684.342041 
	C583.791687,675.078857 568.856567,668.996033 553.803589,663.271301 
	C542.629333,659.021606 531.332397,655.078552 519.997986,651.273376 
	C514.703491,649.495850 509.191132,648.367310 503.475739,646.782410 
	C501.407593,646.096497 499.641205,645.572815 497.874817,645.049194 
	C491.496307,643.451965 485.117767,641.854675 478.383942,639.756348 
	C478.421021,635.825867 479.977234,633.919250 483.792023,633.871765 
	C485.330780,633.852600 486.852539,632.467346 488.382019,631.703735 
	C487.526154,630.483765 486.582123,629.314697 485.840515,628.028809 
	C485.169342,626.864990 484.719025,625.573853 484.551758,624.456421 
	C485.672302,624.862366 486.412415,625.150696 487.383118,625.576904 
	C488.148773,625.781677 488.683777,625.848694 489.582123,625.904175 
	C491.927887,625.924866 493.910309,625.956970 496.246826,625.943604 
	C498.130737,625.232117 499.660553,624.566101 501.190369,623.900085 
z"/>
<path fill="#03A211" opacity="1.000000" stroke="none" 
	d="
M608.526672,694.064819 
	C610.303589,694.271790 612.080505,694.478760 612.838440,694.567078 
	C614.748047,691.338928 616.388123,688.594543 617.997437,685.832153 
	C618.652649,684.707458 620.039673,683.231812 619.733337,682.447021 
	C617.248291,676.082825 622.107605,676.069946 626.257874,674.839111 
	C635.790100,680.731506 644.784485,686.812134 650.153870,696.981812 
	C655.479797,707.069031 657.056763,727.631775 646.675659,738.240601 
	C641.951782,743.068115 637.345398,748.010742 632.355713,752.986328 
	C630.122437,748.371582 628.288025,743.642090 626.289368,738.982971 
	C625.139832,736.303345 623.955933,733.581970 622.339539,731.180908 
	C621.404663,729.791992 619.579834,729.002136 617.876404,727.451904 
	C620.886414,714.255005 617.010010,703.524780 608.526672,694.064819 
z"/>
<path fill="#02960E" opacity="1.000000" stroke="none" 
	d="
M397.835815,740.703857 
	C397.825012,743.066406 397.674713,745.110535 397.538483,747.155640 
	C397.128662,753.306885 396.724365,759.458496 396.020813,765.886292 
	C390.865662,761.947632 385.734894,758.000305 381.244141,753.424927 
	C378.174866,750.297913 375.693756,746.470520 373.485291,742.646973 
	C368.757904,734.462036 370.824615,726.518555 375.390076,719.061096 
	C382.203369,707.931763 394.033691,703.415588 404.704742,697.415833 
	C405.258636,697.104492 405.985077,697.032593 406.640869,696.985901 
	C407.622223,696.916138 408.612213,696.967773 410.930023,696.967773 
	C402.961151,702.574219 395.147308,706.679626 392.422485,715.934570 
	C389.675262,725.265442 393.008209,732.875122 397.835815,740.703857 
z"/>
<path fill="#018F06" opacity="1.000000" stroke="none" 
	d="
M502.657410,801.345459 
	C504.480286,800.973938 506.129395,800.970093 508.182068,800.946289 
	C508.940735,805.513855 509.303650,810.100708 509.648376,814.689026 
	C509.907928,818.143799 507.967102,820.264832 504.864471,820.177979 
	C503.905457,820.151123 502.381531,816.888611 502.260101,815.032715 
	C501.971161,810.616638 502.365387,806.155884 502.657410,801.345459 
z"/>
<path fill="#02A20E" opacity="1.000000" stroke="none" 
	d="
M503.792786,629.676392 
	C503.233795,629.414185 502.691223,628.829346 502.145996,627.909668 
	C502.698608,628.167786 503.253906,628.760803 503.792786,629.676392 
z"/>
<path fill="#01A50F" opacity="1.000000" stroke="none" 
	d="
M614.464478,519.243042 
	C614.832031,534.639343 614.848328,549.910400 614.801331,565.181274 
	C614.798035,566.265442 614.329224,567.348145 613.830933,569.487183 
	C611.232910,567.615662 608.681885,566.534058 607.232910,564.618713 
	C590.508179,542.511719 567.898987,530.167542 541.022583,525.936523 
	C527.677307,523.835571 513.969788,524.046753 500.429016,523.168762 
	C497.499359,522.978760 496.705780,524.432007 496.781799,527.087280 
	C496.895935,531.074341 496.784943,535.067871 496.371490,539.523499 
	C493.484589,539.324585 490.995850,538.660828 488.420471,537.539429 
	C488.333832,532.854797 488.333832,528.627747 488.333832,524.011475 
	C464.760925,529.618713 442.575684,535.519470 424.707703,552.030396 
	C420.011292,552.436401 414.139160,558.343262 414.260590,562.464722 
	C414.287292,563.370667 415.663177,564.236877 416.391510,565.440796 
	C416.118378,566.571716 415.871521,567.383179 415.203796,568.151245 
	C413.567627,567.486633 411.553741,567.114136 411.269806,566.202759 
	C409.706085,561.183044 406.640076,560.392578 402.383179,562.661560 
	C399.928558,559.734680 399.016907,557.058838 401.466827,553.976624 
	C402.030640,553.267334 402.703125,552.051392 402.457886,551.390747 
	C401.123535,547.796387 403.346985,546.194153 405.880310,544.735168 
	C407.919952,543.560425 409.538971,542.310608 407.851196,539.713928 
	C409.015778,539.166992 410.180328,538.620056 411.911346,538.250183 
	C413.262695,537.761658 414.047546,537.096069 414.832428,536.430420 
	C416.608002,535.232117 418.234894,533.648376 420.182861,532.896912 
	C434.909760,527.215393 449.620911,521.472046 464.516663,516.261658 
	C469.140961,514.644165 474.296875,514.292175 479.250458,513.943481 
	C484.016479,513.608032 486.096680,511.305908 487.406830,506.872528 
	C489.509247,499.758148 492.343964,492.860229 494.869202,485.870819 
	C495.384216,485.914520 495.899200,485.958221 496.414215,486.001923 
	C496.414215,494.210938 496.414215,502.419952 496.414215,510.860809 
	C536.263733,505.204681 572.412964,511.509583 605.177002,536.043213 
	C607.137695,530.826538 608.632568,526.346008 610.551819,522.055359 
	C611.113831,520.798767 612.882324,520.081909 614.464478,519.243042 
z"/>
<path fill="#02A20E" opacity="1.000000" stroke="none" 
	d="
M407.501556,539.786316 
	C409.538971,542.310608 407.919952,543.560425 405.880310,544.735168 
	C403.346985,546.194153 401.123535,547.796387 402.457886,551.390747 
	C402.703125,552.051392 402.030640,553.267334 401.466827,553.976624 
	C399.016907,557.058838 399.928558,559.734680 402.383179,562.661560 
	C406.640076,560.392578 409.706085,561.183044 411.269806,566.202759 
	C411.553741,567.114136 413.567627,567.486633 415.120850,568.598938 
	C413.028748,582.397766 417.276703,593.289307 428.448059,600.664001 
	C436.170959,605.762207 444.498962,610.184204 453.044556,613.733459 
	C463.145844,617.929016 473.772430,620.859802 484.171326,624.338806 
	C484.719025,625.573853 485.169342,626.864990 485.840515,628.028809 
	C486.582123,629.314697 487.526154,630.483765 488.382019,631.703735 
	C486.852539,632.467346 485.330780,633.852600 483.792023,633.871765 
	C479.977234,633.919250 478.421021,635.825867 478.013733,639.641235 
	C474.470978,639.091431 470.871826,638.364197 467.426819,637.186157 
	C445.416534,629.659851 422.904877,623.429749 402.495880,611.770020 
	C392.850037,606.259277 384.198273,599.851624 378.043030,590.291626 
	C371.782990,580.568848 372.475922,570.771362 381.084137,559.496277 
	C387.930695,550.528564 397.906189,545.667175 407.501556,539.786316 
z"/>
<path fill="#018F06" opacity="1.000000" stroke="none" 
	d="
M509.266754,777.810669 
	C507.056335,777.805237 504.845917,777.799805 502.353943,777.710083 
	C501.330139,766.717590 500.255707,755.819519 499.918457,744.898743 
	C499.312897,725.287476 499.186829,705.661621 498.767761,686.043884 
	C498.693481,682.567078 497.892700,679.098694 497.908081,675.628540 
	C497.944733,667.365417 498.268890,659.103455 498.947632,650.473755 
	C499.950195,651.622620 500.288910,653.248657 501.070526,654.622742 
	C501.788940,655.885864 502.984192,656.877625 504.045715,658.402954 
	C505.678345,682.020935 507.583710,705.208618 508.672577,728.434570 
	C509.442871,744.866455 509.108154,761.350098 509.266754,777.810669 
z"/>
<path fill="#02A20E" opacity="1.000000" stroke="none" 
	d="
M503.969421,657.988953 
	C502.984192,656.877625 501.788940,655.885864 501.070526,654.622742 
	C500.288910,653.248657 499.950195,651.622620 499.093140,650.038818 
	C498.525543,648.603088 498.283173,647.234985 497.957825,645.458008 
	C499.641205,645.572815 501.407593,646.096497 503.450317,647.244385 
	C503.807556,651.242065 503.888489,654.615479 503.969421,657.988953 
z"/>
<path fill="#02A20E" opacity="1.000000" stroke="none" 
	d="
M414.506592,536.506897 
	C414.047546,537.096069 413.262695,537.761658 412.234131,538.204102 
	C412.720581,537.515015 413.450684,537.049194 414.506592,536.506897 
z"/>
<path fill="#01A306" opacity="1.000000" stroke="none" 
	d="
M488.507141,537.997009 
	C490.995850,538.660828 493.484589,539.324585 496.333923,539.988953 
	C497.525238,552.081848 498.397461,564.171509 499.175110,576.267212 
	C499.964172,588.540039 500.722198,600.815552 501.354980,613.097107 
	C501.525177,616.401001 501.190186,619.730957 501.138733,623.474487 
	C499.660553,624.566101 498.130737,625.232117 496.173096,625.544617 
	C493.332581,596.126343 490.919861,567.061707 488.507141,537.997009 
z"/>
<path fill="#070712" opacity="1.000000" stroke="none" 
	d="
M504.045715,658.402954 
	C503.888489,654.615479 503.807556,651.242065 503.752075,647.406616 
	C509.191132,648.367310 514.703491,649.495850 519.997986,651.273376 
	C531.332397,655.078552 542.629333,659.021606 553.803589,663.271301 
	C568.856567,668.996033 583.791687,675.078857 597.113159,684.342041 
	C601.035706,687.069580 604.465149,690.506165 608.323608,693.841309 
	C617.010010,703.524780 620.886414,714.255005 617.492676,727.374268 
	C611.036682,744.223694 596.751282,752.270325 582.593628,760.248291 
	C567.611572,768.690979 550.928223,771.939636 534.206604,774.713196 
	C526.202393,776.040771 518.087402,776.700867 509.644653,777.737000 
	C509.108154,761.350098 509.442871,744.866455 508.672577,728.434570 
	C507.583710,705.208618 505.678345,682.020935 504.045715,658.402954 
M522.344177,717.060974 
	C523.198364,734.278381 524.052612,751.495728 524.892029,768.414551 
	C540.774597,768.929871 554.911377,763.867249 568.831848,757.819275 
	C581.239380,752.428589 593.102295,746.375549 602.028198,735.687134 
	C607.460693,729.181946 609.136902,717.382751 604.776306,710.411133 
	C603.637817,708.591003 601.523926,707.411011 600.078979,705.745239 
	C598.075317,703.435425 596.659119,700.470764 594.332458,698.610779 
	C582.437439,689.101868 568.614319,683.111572 554.525452,677.755066 
	C544.297302,673.866333 533.933105,670.334412 523.615173,666.684326 
	C522.590454,666.321899 521.464905,666.244385 519.864685,665.933167 
	C520.678589,682.962830 521.471069,699.544189 522.344177,717.060974 
z"/>
<path fill="#050612" opacity="1.000000" stroke="none" 
	d="
M488.420471,537.539429 
	C490.919861,567.061707 493.332581,596.126343 495.819031,625.590088 
	C493.910309,625.956970 491.927887,625.924866 489.359741,625.731567 
	C488.233521,625.526611 487.692993,625.482788 487.152496,625.439026 
	C486.412415,625.150696 485.672302,624.862366 484.551758,624.456421 
	C473.772430,620.859802 463.145844,617.929016 453.044556,613.733459 
	C444.498962,610.184204 436.170959,605.762207 428.448059,600.664001 
	C417.276703,593.289307 413.028748,582.397766 415.541748,568.642334 
	C415.871521,567.383179 416.118378,566.571716 416.622375,565.215576 
	C419.622894,560.460876 422.366302,556.250732 425.109680,552.040649 
	C442.575684,535.519470 464.760925,529.618713 488.333832,524.011475 
	C488.333832,528.627747 488.333832,532.854797 488.420471,537.539429 
M470.841858,612.655640 
	C473.274414,613.406250 475.706970,614.156860 479.414185,615.300781 
	C477.610229,590.214111 475.890228,566.294861 474.142883,541.995544 
	C470.439423,543.137695 467.448578,544.101990 464.433380,544.982910 
	C448.024292,549.777161 434.736877,558.698486 425.875092,573.685364 
	C423.957733,576.927979 423.990662,579.803467 425.567932,583.091797 
	C428.829407,589.891418 433.334442,595.620239 440.172119,598.899902 
	C450.035217,603.630676 460.117584,607.904358 470.841858,612.655640 
z"/>
<path fill="#02A20E" opacity="1.000000" stroke="none" 
	d="
M487.383118,625.576904 
	C487.692993,625.482788 488.233521,625.526611 488.996399,625.743042 
	C488.683777,625.848694 488.148773,625.781677 487.383118,625.576904 
z"/>
<path fill="#02A20E" opacity="1.000000" stroke="none" 
	d="
M424.707703,552.030396 
	C422.366302,556.250732 419.622894,560.460876 416.648621,564.896179 
	C415.663177,564.236877 414.287292,563.370667 414.260590,562.464722 
	C414.139160,558.343262 420.011292,552.436401 424.707703,552.030396 
z"/>
<path fill="#C99201" opacity="1.000000" stroke="none" 
	d="
M522.303833,716.593262 
	C521.471069,699.544189 520.678589,682.962830 519.864685,665.933167 
	C521.464905,666.244385 522.590454,666.321899 523.615173,666.684326 
	C533.933105,670.334412 544.297302,673.866333 554.525452,677.755066 
	C568.614319,683.111572 582.437439,689.101868 594.332458,698.610779 
	C596.659119,700.470764 598.075317,703.435425 600.078979,705.745239 
	C601.523926,707.411011 603.637817,708.591003 604.776306,710.411133 
	C609.136902,717.382751 607.460693,729.181946 602.028198,735.687134 
	C593.102295,746.375549 581.239380,752.428589 568.831848,757.819275 
	C554.911377,763.867249 540.774597,768.929871 524.892029,768.414551 
	C524.052612,751.495728 523.198364,734.278381 522.303833,716.593262 
z"/>
<path fill="#C99201" opacity="1.000000" stroke="none" 
	d="
M470.474121,612.514404 
	C460.117584,607.904358 450.035217,603.630676 440.172119,598.899902 
	C433.334442,595.620239 428.829407,589.891418 425.567932,583.091797 
	C423.990662,579.803467 423.957733,576.927979 425.875092,573.685364 
	C434.736877,558.698486 448.024292,549.777161 464.433380,544.982910 
	C467.448578,544.101990 470.439423,543.137695 474.142883,541.995544 
	C475.890228,566.294861 477.610229,590.214111 479.414185,615.300781 
	C475.706970,614.156860 473.274414,613.406250 470.474121,612.514404 
z"/>
</svg>